<svg xmlns="http://www.w3.org/2000/svg" xmlns:xlink="http://www.w3.org/1999/xlink" width="500" zoomAndPan="magnify" viewBox="0 0 375 374.999991" height="500" preserveAspectRatio="xMidYMid meet" version="1.0"><defs><g/><clipPath id="1db3e75ee0"><path d="M 187.5 0 C 83.945312 0 0 83.945312 0 187.5 C 0 291.054688 83.945312 375 187.5 375 C 291.054688 375 375 291.054688 375 187.5 C 375 83.945312 291.054688 0 187.5 0 Z M 187.5 0 " clip-rule="nonzero"/></clipPath><clipPath id="cc8a6c5026"><path d="M 120.828125 104.757812 L 254 104.757812 L 254 236.757812 L 120.828125 236.757812 Z M 120.828125 104.757812 " clip-rule="nonzero"/></clipPath><clipPath id="f834db7898"><path d="M 142 37.5 L 232.730469 37.5 L 232.730469 99 L 142 99 Z M 142 37.5 " clip-rule="nonzero"/></clipPath></defs><rect x="-37.5" width="450" fill="#ffffff" y="-37.499999" height="449.999989" fill-opacity="1"/><rect x="-37.5" width="450" fill="#ffffff" y="-37.499999" height="449.999989" fill-opacity="1"/><g clip-path="url(#1db3e75ee0)"><rect x="-37.5" width="450" fill="#1a1449" y="-37.499999" height="449.999989" fill-opacity="1"/></g><g clip-path="url(#cc8a6c5026)"><path fill="#ebb428" d="M 210.183594 190.699219 L 125.933594 190.699219 C 125.046875 190.699219 123.996094 190.035156 122.722656 188.734375 C 121.476562 187.40625 120.839844 186.328125 120.839844 185.441406 L 120.839844 108.328125 C 120.839844 107.332031 121.476562 106.472656 122.722656 105.78125 C 123.996094 105.117188 125.074219 104.757812 125.933594 104.757812 L 210.15625 104.757812 C 216.160156 104.757812 221.777344 105.863281 226.980469 108.050781 C 232.179688 110.238281 236.71875 113.28125 240.621094 117.179688 C 244.496094 121.054688 247.539062 125.621094 249.75 130.824219 C 251.9375 136.023438 253.042969 141.640625 253.042969 147.644531 C 253.042969 153.289062 251.9375 158.710938 249.75 163.914062 C 247.566406 169.117188 244.523438 173.683594 240.621094 177.636719 C 236.746094 181.59375 232.179688 184.75 226.980469 187.128906 C 221.804688 189.507812 216.1875 190.699219 210.183594 190.699219 Z M 129.527344 182.230469 L 210.183594 182.230469 C 214.832031 182.230469 219.230469 181.320312 223.4375 179.492188 C 227.644531 177.667969 231.269531 175.175781 234.339844 172.023438 C 237.410156 168.867188 239.847656 165.214844 241.671875 161.066406 C 243.5 156.914062 244.410156 152.433594 244.410156 147.644531 C 244.410156 142.96875 243.5 138.542969 241.671875 134.308594 C 239.847656 130.074219 237.410156 126.421875 234.339844 123.351562 C 231.269531 120.253906 227.644531 117.816406 223.4375 115.964844 C 219.230469 114.136719 214.804688 113.226562 210.183594 113.226562 L 129.527344 113.226562 Z M 249.476562 236.933594 L 141.566406 236.933594 C 140.679688 236.933594 139.601562 236.296875 138.273438 235.050781 C 136.945312 233.808594 136.308594 232.726562 136.308594 231.84375 L 136.308594 123.574219 C 136.308594 122.6875 136.695312 121.941406 137.441406 121.304688 C 138.1875 120.667969 139.019531 120.363281 139.878906 120.363281 C 140.761719 119.476562 141.566406 119.257812 142.3125 119.699219 C 143.058594 120.140625 143.890625 120.363281 144.746094 120.363281 L 253.042969 228.300781 C 253.042969 229.1875 253.265625 230.042969 253.707031 230.929688 C 254.152344 231.816406 253.929688 232.699219 253.042969 233.558594 C 253.042969 234.445312 252.683594 235.21875 252.019531 235.910156 C 251.328125 236.601562 250.472656 236.933594 249.476562 236.933594 Z M 144.941406 228.46875 L 239.320312 228.46875 L 144.941406 134.085938 Z M 144.941406 228.46875 " fill-opacity="1" fill-rule="nonzero"/></g><g clip-path="url(#f834db7898)"><path fill="#ebb428" d="M 229.355469 56.722656 C 229.355469 56.960938 229.355469 57.234375 229.289062 57.472656 L 223.683594 79.886719 C 223.414062 81.007812 222.394531 81.824219 221.238281 81.824219 L 187.613281 81.992188 L 153.953125 81.992188 C 152.800781 81.992188 151.78125 81.210938 151.476562 80.058594 L 145.871094 57.574219 C 145.804688 57.300781 145.804688 57.03125 145.804688 56.792969 C 143.628906 56.113281 142.066406 54.074219 142.066406 51.699219 C 142.066406 48.742188 144.480469 46.332031 147.433594 46.332031 C 150.390625 46.332031 152.800781 48.742188 152.800781 51.699219 C 152.800781 53.363281 152.054688 54.855469 150.832031 55.839844 L 157.859375 62.90625 C 159.59375 64.671875 162.074219 65.691406 164.585938 65.691406 C 167.574219 65.691406 170.394531 64.265625 172.195312 61.921875 L 183.707031 46.636719 C 182.722656 45.683594 182.144531 44.328125 182.144531 42.867188 C 182.144531 39.910156 184.558594 37.5 187.511719 37.5 C 190.46875 37.5 192.878906 39.910156 192.878906 42.867188 C 192.878906 44.292969 192.300781 45.582031 191.382812 46.570312 L 202.832031 61.886719 C 204.628906 64.265625 207.449219 65.691406 210.4375 65.691406 C 212.984375 65.691406 215.363281 64.707031 217.164062 62.90625 L 224.226562 55.839844 C 223.003906 54.855469 222.222656 53.363281 222.222656 51.664062 C 222.222656 48.707031 224.636719 46.296875 227.589844 46.296875 C 230.546875 46.296875 232.957031 48.707031 232.957031 51.664062 C 232.921875 54.007812 231.429688 55.976562 229.355469 56.722656 Z M 223.140625 89.976562 C 223.140625 88.582031 221.988281 87.429688 220.59375 87.429688 L 154.703125 87.429688 C 153.308594 87.429688 152.15625 88.582031 152.15625 89.976562 L 152.15625 96.089844 C 152.15625 97.480469 153.308594 98.636719 154.703125 98.636719 L 220.59375 98.636719 C 221.988281 98.636719 223.140625 97.480469 223.140625 96.089844 Z M 223.140625 89.976562 " fill-opacity="1" fill-rule="nonzero"/></g><g fill="#ffffff" fill-opacity="1"><g transform="translate(51.333929, 283.433323)"><g><path d="M 23.046875 -21.21875 L 15.015625 -21.21875 L 15.015625 0 L 8.234375 0 L 8.234375 -21.21875 L 0.265625 -21.21875 L 0.265625 -26.703125 L 23.046875 -26.703125 Z M 23.046875 -21.21875 "/></g></g></g><g fill="#ffffff" fill-opacity="1"><g transform="translate(78.988015, 283.433323)"><g><path d="M 26.671875 -26.671875 L 26.671875 -11.203125 C 26.671875 -7.671875 25.578125 -4.867188 23.390625 -2.796875 C 21.203125 -0.722656 18.242188 0.3125 14.515625 0.3125 C 10.753906 0.3125 7.757812 -0.722656 5.53125 -2.796875 C 3.3125 -4.867188 2.203125 -7.671875 2.203125 -11.203125 L 2.203125 -26.671875 L 8.984375 -26.671875 L 8.984375 -11.203125 C 8.984375 -9.421875 9.5 -8.003906 10.53125 -6.953125 C 11.5625 -5.898438 12.898438 -5.375 14.546875 -5.375 C 16.171875 -5.375 17.472656 -5.894531 18.453125 -6.9375 C 19.429688 -7.976562 19.921875 -9.398438 19.921875 -11.203125 L 19.921875 -26.671875 Z M 26.671875 -26.671875 "/></g></g></g><g fill="#ffffff" fill-opacity="1"><g transform="translate(112.241479, 283.433323)"><g><path d="M 27.28125 0 L 21.296875 0 L 9.03125 -16.421875 L 9.03125 0 L 2.671875 0 L 2.671875 -26.671875 L 8.640625 -26.671875 L 20.953125 -10.203125 L 20.953125 -26.671875 L 27.28125 -26.671875 Z M 27.28125 0 "/></g></g></g><g fill="#ffffff" fill-opacity="1"><g transform="translate(146.561484, 283.433323)"><g><path d="M 20.375 -4.921875 L 8.71875 -4.921875 L 6.78125 0 L -0.1875 0 L 11.3125 -26.671875 L 18.28125 -26.671875 L 29.515625 0 L 22.28125 0 Z M 18.40625 -10.0625 L 14.59375 -19.921875 L 10.703125 -10.0625 Z M 18.40625 -10.0625 "/></g></g></g><g fill="#ffffff" fill-opacity="1"><g transform="translate(180.27204, 283.433323)"><g/></g></g><g fill="#ffffff" fill-opacity="1"><g transform="translate(193.489631, 283.433323)"><g><path d="M 2.671875 -26.671875 L 15.28125 -26.671875 C 18.269531 -26.671875 20.644531 -26.066406 22.40625 -24.859375 C 24.175781 -23.648438 25.0625 -22.03125 25.0625 -20 C 25.0625 -18.601562 24.65625 -17.378906 23.84375 -16.328125 C 23.03125 -15.273438 21.914062 -14.539062 20.5 -14.125 C 22.175781 -13.800781 23.507812 -13.03125 24.5 -11.8125 C 25.488281 -10.59375 25.984375 -9.117188 25.984375 -7.390625 C 25.984375 -5.128906 25.0625 -3.332031 23.21875 -2 C 21.375 -0.664062 18.878906 0 15.734375 0 L 2.671875 0 Z M 9.40625 -21.484375 L 9.40625 -16 L 14.890625 -16 C 15.878906 -16 16.664062 -16.242188 17.25 -16.734375 C 17.832031 -17.234375 18.125 -17.914062 18.125 -18.78125 C 18.125 -19.613281 17.832031 -20.269531 17.25 -20.75 C 16.664062 -21.238281 15.878906 -21.484375 14.890625 -21.484375 Z M 9.40625 -11.125 L 9.40625 -5.21875 L 14.890625 -5.21875 C 16.160156 -5.21875 17.15625 -5.484375 17.875 -6.015625 C 18.601562 -6.546875 18.96875 -7.285156 18.96875 -8.234375 C 18.96875 -9.117188 18.601562 -9.820312 17.875 -10.34375 C 17.15625 -10.863281 16.160156 -11.125 14.890625 -11.125 Z M 9.40625 -11.125 "/></g></g></g><g fill="#ffffff" fill-opacity="1"><g transform="translate(225.10518, 283.433323)"><g><path d="M 15.3125 -26.890625 C 19.445312 -26.890625 22.882812 -25.597656 25.625 -23.015625 C 28.375 -20.441406 29.75 -17.226562 29.75 -13.375 C 29.75 -9.488281 28.367188 -6.234375 25.609375 -3.609375 C 22.859375 -0.992188 19.425781 0.3125 15.3125 0.3125 C 11.195312 0.3125 7.769531 -0.988281 5.03125 -3.59375 C 2.289062 -6.195312 0.921875 -9.457031 0.921875 -13.375 C 0.921875 -17.257812 2.289062 -20.484375 5.03125 -23.046875 C 7.769531 -25.609375 11.195312 -26.890625 15.3125 -26.890625 Z M 15.390625 -21.21875 C 13.304688 -21.21875 11.523438 -20.460938 10.046875 -18.953125 C 8.578125 -17.441406 7.84375 -15.566406 7.84375 -13.328125 C 7.84375 -11.097656 8.582031 -9.210938 10.0625 -7.671875 C 11.550781 -6.140625 13.320312 -5.375 15.375 -5.375 C 17.4375 -5.375 19.1875 -6.140625 20.625 -7.671875 C 22.0625 -9.210938 22.78125 -11.097656 22.78125 -13.328125 C 22.78125 -15.566406 22.0625 -17.441406 20.625 -18.953125 C 19.1875 -20.460938 17.441406 -21.21875 15.390625 -21.21875 Z M 15.390625 -21.21875 "/></g></g></g><g fill="#ffffff" fill-opacity="1"><g transform="translate(260.148916, 283.433323)"><g><path d="M 15.3125 -26.890625 C 19.445312 -26.890625 22.882812 -25.597656 25.625 -23.015625 C 28.375 -20.441406 29.75 -17.226562 29.75 -13.375 C 29.75 -9.488281 28.367188 -6.234375 25.609375 -3.609375 C 22.859375 -0.992188 19.425781 0.3125 15.3125 0.3125 C 11.195312 0.3125 7.769531 -0.988281 5.03125 -3.59375 C 2.289062 -6.195312 0.921875 -9.457031 0.921875 -13.375 C 0.921875 -17.257812 2.289062 -20.484375 5.03125 -23.046875 C 7.769531 -25.609375 11.195312 -26.890625 15.3125 -26.890625 Z M 15.390625 -21.21875 C 13.304688 -21.21875 11.523438 -20.460938 10.046875 -18.953125 C 8.578125 -17.441406 7.84375 -15.566406 7.84375 -13.328125 C 7.84375 -11.097656 8.582031 -9.210938 10.0625 -7.671875 C 11.550781 -6.140625 13.320312 -5.375 15.375 -5.375 C 17.4375 -5.375 19.1875 -6.140625 20.625 -7.671875 C 22.0625 -9.210938 22.78125 -11.097656 22.78125 -13.328125 C 22.78125 -15.566406 22.0625 -17.441406 20.625 -18.953125 C 19.1875 -20.460938 17.441406 -21.21875 15.390625 -21.21875 Z M 15.390625 -21.21875 "/></g></g></g><g fill="#ffffff" fill-opacity="1"><g transform="translate(295.192653, 283.433323)"><g><path d="M 20.03125 0 L 12.984375 -10.46875 L 9.453125 -6.546875 L 9.453125 0 L 2.671875 0 L 2.671875 -26.671875 L 9.453125 -26.671875 L 9.453125 -15.125 L 19.65625 -26.671875 L 27.5 -26.671875 L 17.59375 -15.625 L 28.15625 0 Z M 20.03125 0 "/></g></g></g><g fill="#ebb428" fill-opacity="1"><g transform="translate(90.939587, 312.23796)"><g><path d="M 4.53125 -11.375 L 0.078125 -11.375 L 0.078125 -13 L 10.828125 -13 L 10.828125 -11.375 L 6.359375 -11.375 L 6.359375 0 L 4.53125 0 Z M 4.53125 -11.375 "/></g></g></g><g fill="#ebb428" fill-opacity="1"><g transform="translate(103.375394, 312.23796)"><g><path d="M 7.328125 0.15625 C 5.597656 0.15625 4.25 -0.335938 3.28125 -1.328125 C 2.320312 -2.328125 1.84375 -3.753906 1.84375 -5.609375 L 1.84375 -13 L 3.6875 -13 L 3.6875 -5.6875 C 3.6875 -2.894531 4.90625 -1.5 7.34375 -1.5 C 8.53125 -1.5 9.441406 -1.84375 10.078125 -2.53125 C 10.710938 -3.21875 11.03125 -4.269531 11.03125 -5.6875 L 11.03125 -13 L 12.828125 -13 L 12.828125 -5.609375 C 12.828125 -3.734375 12.34375 -2.300781 11.375 -1.3125 C 10.414062 -0.332031 9.066406 0.15625 7.328125 0.15625 Z M 7.09375 -14.609375 C 7.445312 -14.765625 7.707031 -14.945312 7.875 -15.15625 C 8.039062 -15.363281 8.125 -15.597656 8.125 -15.859375 C 8.125 -16.097656 8.035156 -16.300781 7.859375 -16.46875 C 7.679688 -16.632812 7.453125 -16.71875 7.171875 -16.71875 C 6.785156 -16.71875 6.410156 -16.601562 6.046875 -16.375 L 5.640625 -17.203125 C 5.867188 -17.378906 6.128906 -17.507812 6.421875 -17.59375 C 6.722656 -17.6875 7.023438 -17.734375 7.328125 -17.734375 C 7.890625 -17.734375 8.347656 -17.570312 8.703125 -17.25 C 9.054688 -16.9375 9.234375 -16.519531 9.234375 -16 C 9.234375 -15.0625 8.722656 -14.359375 7.703125 -13.890625 Z M 7.09375 -14.609375 "/></g></g></g><g fill="#ebb428" fill-opacity="1"><g transform="translate(119.59736, 312.23796)"><g/></g></g><g fill="#ebb428" fill-opacity="1"><g transform="translate(126.131213, 312.23796)"><g><path d="M 5.734375 0.15625 C 4.753906 0.15625 3.8125 0.00390625 2.90625 -0.296875 C 2 -0.609375 1.285156 -1.003906 0.765625 -1.484375 L 1.453125 -2.9375 C 1.941406 -2.488281 2.570312 -2.125 3.34375 -1.84375 C 4.125 -1.5625 4.921875 -1.421875 5.734375 -1.421875 C 6.804688 -1.421875 7.609375 -1.601562 8.140625 -1.96875 C 8.679688 -2.34375 8.953125 -2.832031 8.953125 -3.4375 C 8.953125 -3.882812 8.804688 -4.242188 8.515625 -4.515625 C 8.222656 -4.796875 7.863281 -5.007812 7.4375 -5.15625 C 7.007812 -5.3125 6.40625 -5.476562 5.625 -5.65625 C 4.644531 -5.894531 3.851562 -6.128906 3.25 -6.359375 C 2.65625 -6.597656 2.144531 -6.960938 1.71875 -7.453125 C 1.289062 -7.941406 1.078125 -8.601562 1.078125 -9.4375 C 1.078125 -10.125 1.257812 -10.742188 1.625 -11.296875 C 1.988281 -11.859375 2.539062 -12.304688 3.28125 -12.640625 C 4.03125 -12.972656 4.953125 -13.140625 6.046875 -13.140625 C 6.816406 -13.140625 7.570312 -13.039062 8.3125 -12.84375 C 9.0625 -12.644531 9.703125 -12.359375 10.234375 -11.984375 L 9.609375 -10.5 C 9.066406 -10.851562 8.484375 -11.117188 7.859375 -11.296875 C 7.242188 -11.472656 6.640625 -11.5625 6.046875 -11.5625 C 4.992188 -11.5625 4.203125 -11.367188 3.671875 -10.984375 C 3.148438 -10.597656 2.890625 -10.101562 2.890625 -9.5 C 2.890625 -9.050781 3.035156 -8.6875 3.328125 -8.40625 C 3.628906 -8.132812 4 -7.921875 4.4375 -7.765625 C 4.882812 -7.609375 5.484375 -7.445312 6.234375 -7.28125 C 7.210938 -7.039062 8 -6.800781 8.59375 -6.5625 C 9.1875 -6.332031 9.695312 -5.972656 10.125 -5.484375 C 10.550781 -5.003906 10.765625 -4.359375 10.765625 -3.546875 C 10.765625 -2.867188 10.578125 -2.242188 10.203125 -1.671875 C 9.835938 -1.109375 9.273438 -0.660156 8.515625 -0.328125 C 7.765625 -0.00390625 6.835938 0.15625 5.734375 0.15625 Z M 5.734375 0.15625 "/></g></g></g><g fill="#ebb428" fill-opacity="1"><g transform="translate(139.198052, 312.23796)"><g><path d="M 10.234375 -3.25 L 3.328125 -3.25 L 1.890625 0 L -0.015625 0 L 5.859375 -13 L 7.703125 -13 L 13.609375 0 L 11.65625 0 Z M 9.578125 -4.734375 L 6.78125 -11.09375 L 3.96875 -4.734375 Z M 7.921875 -16.46875 L 10.1875 -16.46875 L 7.0625 -14.046875 L 5.390625 -14.046875 Z M 7.921875 -16.46875 "/></g></g></g><g fill="#ebb428" fill-opacity="1"><g transform="translate(154.325016, 312.23796)"><g><path d="M 7.765625 0.15625 C 6.460938 0.15625 5.285156 -0.128906 4.234375 -0.703125 C 3.191406 -1.285156 2.375 -2.082031 1.78125 -3.09375 C 1.1875 -4.101562 0.890625 -5.238281 0.890625 -6.5 C 0.890625 -7.757812 1.1875 -8.894531 1.78125 -9.90625 C 2.375 -10.914062 3.195312 -11.707031 4.25 -12.28125 C 5.300781 -12.851562 6.476562 -13.140625 7.78125 -13.140625 C 8.789062 -13.140625 9.71875 -12.96875 10.5625 -12.625 C 11.40625 -12.289062 12.125 -11.789062 12.71875 -11.125 L 11.515625 -9.953125 C 10.535156 -10.972656 9.316406 -11.484375 7.859375 -11.484375 C 6.890625 -11.484375 6.015625 -11.265625 5.234375 -10.828125 C 4.453125 -10.398438 3.84375 -9.804688 3.40625 -9.046875 C 2.96875 -8.285156 2.75 -7.4375 2.75 -6.5 C 2.75 -5.5625 2.96875 -4.707031 3.40625 -3.9375 C 3.84375 -3.175781 4.453125 -2.578125 5.234375 -2.140625 C 6.015625 -1.710938 6.890625 -1.5 7.859375 -1.5 C 9.304688 -1.5 10.523438 -2.019531 11.515625 -3.0625 L 12.71875 -1.890625 C 12.125 -1.222656 11.398438 -0.710938 10.546875 -0.359375 C 9.703125 -0.015625 8.773438 0.15625 7.765625 0.15625 Z M 7.765625 0.15625 "/></g></g></g><g fill="#ebb428" fill-opacity="1"><g transform="translate(169.284935, 312.23796)"><g><path d="M 13.125 -13 L 13.125 0 L 11.265625 0 L 11.265625 -5.796875 L 3.8125 -5.796875 L 3.8125 0 L 1.953125 0 L 1.953125 -13 L 3.8125 -13 L 3.8125 -7.40625 L 11.265625 -7.40625 L 11.265625 -13 Z M 13.125 -13 "/></g></g></g><g fill="#ebb428" fill-opacity="1"><g transform="translate(185.896659, 312.23796)"><g/></g></g><g fill="#ebb428" fill-opacity="1"><g transform="translate(192.430511, 312.23796)"><g><path d="M 10.953125 -6.578125 L 12.734375 -6.578125 L 12.734375 -1.5 C 12.085938 -0.96875 11.335938 -0.554688 10.484375 -0.265625 C 9.628906 0.015625 8.738281 0.15625 7.8125 0.15625 C 6.5 0.15625 5.316406 -0.128906 4.265625 -0.703125 C 3.210938 -1.285156 2.382812 -2.082031 1.78125 -3.09375 C 1.1875 -4.101562 0.890625 -5.238281 0.890625 -6.5 C 0.890625 -7.757812 1.1875 -8.894531 1.78125 -9.90625 C 2.382812 -10.925781 3.210938 -11.71875 4.265625 -12.28125 C 5.328125 -12.851562 6.523438 -13.140625 7.859375 -13.140625 C 8.890625 -13.140625 9.828125 -12.96875 10.671875 -12.625 C 11.523438 -12.289062 12.25 -11.796875 12.84375 -11.140625 L 11.6875 -9.984375 C 10.65625 -10.984375 9.398438 -11.484375 7.921875 -11.484375 C 6.929688 -11.484375 6.039062 -11.269531 5.25 -10.84375 C 4.46875 -10.414062 3.851562 -9.820312 3.40625 -9.0625 C 2.96875 -8.300781 2.75 -7.445312 2.75 -6.5 C 2.75 -5.5625 2.96875 -4.707031 3.40625 -3.9375 C 3.851562 -3.175781 4.46875 -2.578125 5.25 -2.140625 C 6.039062 -1.710938 6.925781 -1.5 7.90625 -1.5 C 9.070312 -1.5 10.085938 -1.78125 10.953125 -2.34375 Z M 10.953125 -6.578125 "/></g></g></g><g fill="#ebb428" fill-opacity="1"><g transform="translate(208.299846, 312.23796)"><g><path d="M 1.953125 -13 L 3.8125 -13 L 3.8125 0 L 1.953125 0 Z M 1.953125 -13 "/></g></g></g><g fill="#ebb428" fill-opacity="1"><g transform="translate(215.59465, 312.23796)"><g><path d="M 10.234375 -3.25 L 3.328125 -3.25 L 1.890625 0 L -0.015625 0 L 5.859375 -13 L 7.703125 -13 L 13.609375 0 L 11.65625 0 Z M 9.578125 -4.734375 L 6.78125 -11.09375 L 3.96875 -4.734375 Z M 3.390625 -16.46875 L 5.65625 -16.46875 L 8.1875 -14.046875 L 6.515625 -14.046875 Z M 3.390625 -16.46875 "/></g></g></g><g fill="#ebb428" fill-opacity="1"><g transform="translate(230.721614, 312.23796)"><g><path d="M 7.328125 0.15625 C 5.597656 0.15625 4.25 -0.335938 3.28125 -1.328125 C 2.320312 -2.328125 1.84375 -3.753906 1.84375 -5.609375 L 1.84375 -13 L 3.6875 -13 L 3.6875 -5.6875 C 3.6875 -2.894531 4.90625 -1.5 7.34375 -1.5 C 8.53125 -1.5 9.441406 -1.84375 10.078125 -2.53125 C 10.710938 -3.21875 11.03125 -4.269531 11.03125 -5.6875 L 11.03125 -13 L 12.828125 -13 L 12.828125 -5.609375 C 12.828125 -3.734375 12.34375 -2.300781 11.375 -1.3125 C 10.414062 -0.332031 9.066406 0.15625 7.328125 0.15625 Z M 7.328125 0.15625 "/></g></g></g><g fill="#ebb428" fill-opacity="1"><g transform="translate(246.94358, 312.23796)"><g/></g></g><g fill="#ebb428" fill-opacity="1"><g transform="translate(253.477443, 312.23796)"><g><path d="M 7.765625 0.15625 C 6.460938 0.15625 5.285156 -0.128906 4.234375 -0.703125 C 3.191406 -1.285156 2.375 -2.082031 1.78125 -3.09375 C 1.1875 -4.101562 0.890625 -5.238281 0.890625 -6.5 C 0.890625 -7.757812 1.1875 -8.894531 1.78125 -9.90625 C 2.375 -10.914062 3.195312 -11.707031 4.25 -12.28125 C 5.300781 -12.851562 6.476562 -13.140625 7.78125 -13.140625 C 8.789062 -13.140625 9.71875 -12.96875 10.5625 -12.625 C 11.40625 -12.289062 12.125 -11.789062 12.71875 -11.125 L 11.515625 -9.953125 C 10.535156 -10.972656 9.316406 -11.484375 7.859375 -11.484375 C 6.890625 -11.484375 6.015625 -11.265625 5.234375 -10.828125 C 4.453125 -10.398438 3.84375 -9.804688 3.40625 -9.046875 C 2.96875 -8.285156 2.75 -7.4375 2.75 -6.5 C 2.75 -5.5625 2.96875 -4.707031 3.40625 -3.9375 C 3.84375 -3.175781 4.453125 -2.578125 5.234375 -2.140625 C 6.015625 -1.710938 6.890625 -1.5 7.859375 -1.5 C 9.304688 -1.5 10.523438 -2.019531 11.515625 -3.0625 L 12.71875 -1.890625 C 12.125 -1.222656 11.398438 -0.710938 10.546875 -0.359375 C 9.703125 -0.015625 8.773438 0.15625 7.765625 0.15625 Z M 7.765625 0.15625 "/></g></g></g><g fill="#ebb428" fill-opacity="1"><g transform="translate(268.437372, 312.23796)"><g><path d="M 7.8125 0.15625 C 6.5 0.15625 5.316406 -0.128906 4.265625 -0.703125 C 3.210938 -1.285156 2.382812 -2.082031 1.78125 -3.09375 C 1.1875 -4.113281 0.890625 -5.25 0.890625 -6.5 C 0.890625 -7.75 1.1875 -8.878906 1.78125 -9.890625 C 2.382812 -10.910156 3.210938 -11.707031 4.265625 -12.28125 C 5.316406 -12.851562 6.5 -13.140625 7.8125 -13.140625 C 9.113281 -13.140625 10.289062 -12.851562 11.34375 -12.28125 C 12.394531 -11.707031 13.21875 -10.914062 13.8125 -9.90625 C 14.40625 -8.894531 14.703125 -7.757812 14.703125 -6.5 C 14.703125 -5.238281 14.40625 -4.101562 13.8125 -3.09375 C 13.21875 -2.082031 12.394531 -1.285156 11.34375 -0.703125 C 10.289062 -0.128906 9.113281 0.15625 7.8125 0.15625 Z M 7.8125 -1.5 C 8.769531 -1.5 9.628906 -1.710938 10.390625 -2.140625 C 11.148438 -2.578125 11.75 -3.175781 12.1875 -3.9375 C 12.625 -4.707031 12.84375 -5.5625 12.84375 -6.5 C 12.84375 -7.4375 12.625 -8.285156 12.1875 -9.046875 C 11.75 -9.804688 11.148438 -10.398438 10.390625 -10.828125 C 9.628906 -11.265625 8.769531 -11.484375 7.8125 -11.484375 C 6.863281 -11.484375 6 -11.265625 5.21875 -10.828125 C 4.445312 -10.398438 3.84375 -9.804688 3.40625 -9.046875 C 2.96875 -8.285156 2.75 -7.4375 2.75 -6.5 C 2.75 -5.5625 2.96875 -4.707031 3.40625 -3.9375 C 3.84375 -3.175781 4.445312 -2.578125 5.21875 -2.140625 C 6 -1.710938 6.863281 -1.5 7.8125 -1.5 Z M 8.953125 -16.46875 L 11.21875 -16.46875 L 8.09375 -14.046875 L 6.421875 -14.046875 Z M 8.953125 -16.46875 "/></g></g></g></svg>