<svg xmlns="http://www.w3.org/2000/svg" xmlns:xlink="http://www.w3.org/1999/xlink" width="500" zoomAndPan="magnify" viewBox="0 0 375 374.999991" height="500" preserveAspectRatio="xMidYMid meet" version="1.0"><defs><g/><clipPath id="49513335c3"><path d="M 78 216 L 296.976562 216 L 296.976562 329 L 78 329 Z M 78 216 " clip-rule="nonzero"/></clipPath><clipPath id="7e4de97e49"><path d="M 250 171 L 296.976562 171 L 296.976562 225 L 250 225 Z M 250 171 " clip-rule="nonzero"/></clipPath></defs><rect x="-37.5" width="450" fill="#ffffff" y="-37.499999" height="449.999989" fill-opacity="1"/><rect x="-37.5" width="450" fill="#ffbe98" y="-37.499999" height="449.999989" fill-opacity="1"/><g clip-path="url(#49513335c3)"><path fill="#72685f" d="M 78.289062 219.699219 C 78.339844 242.230469 85.324219 264.53125 98.445312 282.890625 C 111.3125 300.898438 129.417969 314.746094 150.21875 322.363281 C 171.632812 330.203125 195.550781 331.015625 217.480469 324.800781 C 238.597656 318.820312 257.773438 306.335938 271.757812 289.421875 C 286.109375 272.0625 294.824219 250.644531 296.605469 228.191406 C 296.828125 225.367188 296.933594 222.535156 296.9375 219.699219 C 296.945312 216.058594 291.28125 216.050781 291.273438 219.699219 C 291.226562 241.160156 284.5625 262.152344 272.148438 279.671875 C 260.179688 296.566406 242.960938 309.78125 223.503906 316.902344 C 202.980469 324.417969 180.289062 325.304688 159.253906 319.34375 C 139.078125 313.628906 120.996094 301.707031 107.621094 285.589844 C 94.160156 269.375 85.886719 248.960938 84.273438 227.960938 C 84.058594 225.210938 83.960938 222.457031 83.953125 219.699219 C 83.945312 216.058594 78.28125 216.050781 78.289062 219.699219 " fill-opacity="1" fill-rule="nonzero"/></g><path fill="#72685f" d="M 197.121094 120.378906 C 195.871094 123.300781 194.144531 126.195312 191.472656 128.027344 C 188.683594 129.9375 185.242188 130.457031 181.960938 129.722656 C 175.179688 128.199219 170.371094 121.886719 169.859375 115.0625 C 169.386719 108.78125 172.191406 101.382812 177.269531 97.429688 C 182.445312 93.398438 189.175781 95.300781 193.453125 99.640625 C 199.238281 105.507812 199.816406 113.652344 196.832031 121.054688 C 196.261719 122.472656 197.457031 124.164062 198.8125 124.535156 C 200.429688 124.980469 201.722656 123.984375 202.296875 122.558594 C 205.8125 113.828125 204.742188 104.160156 198.613281 96.902344 C 193.15625 90.4375 183.96875 87.273438 176.152344 91.433594 C 168.835938 95.324219 164.433594 104.757812 164.152344 112.742188 C 163.832031 121.800781 169.050781 130.804688 177.566406 134.261719 C 182.347656 136.203125 187.878906 136.210938 192.546875 133.945312 C 196.957031 131.800781 200.121094 127.660156 202.011719 123.234375 C 202.609375 121.832031 202.429688 120.203125 200.996094 119.363281 C 199.804688 118.667969 197.722656 118.964844 197.121094 120.378906 " fill-opacity="1" fill-rule="nonzero"/><path fill="#72685f" d="M 186.179688 133.816406 C 186.820312 143.230469 195.882812 145.824219 203.402344 148.511719 C 210.488281 151.046875 217.117188 154.074219 221.886719 160 C 221.929688 160.050781 221.992188 160.117188 222.203125 160.441406 C 222.351562 160.667969 222.503906 160.894531 222.640625 161.125 C 222.800781 161.394531 222.945312 161.664062 223.085938 161.941406 C 223.148438 162.058594 223.203125 162.179688 223.261719 162.300781 C 223.613281 163.0625 223.164062 162.027344 223.332031 162.484375 C 223.8125 163.769531 224.105469 165.101562 224.324219 166.453125 C 224.945312 170.296875 225.152344 174.714844 225.582031 178.777344 C 226.761719 189.816406 228.019531 200.949219 231.117188 211.644531 C 234.472656 223.222656 240.132812 233.867188 247.871094 243.109375 C 248.851562 244.28125 250.863281 244.121094 251.878906 243.109375 C 253.039062 241.945312 252.859375 240.28125 251.878906 239.105469 C 245.378906 231.347656 240.472656 222.371094 237.375 212.742188 C 234.058594 202.414062 232.671875 191.640625 231.480469 180.902344 C 230.984375 176.40625 230.679688 171.886719 230.128906 167.398438 C 229.753906 164.394531 229.253906 161.429688 227.796875 158.734375 C 224.769531 153.117188 218.667969 148.90625 213.015625 146.308594 C 208.4375 144.207031 203.632812 142.792969 198.960938 140.941406 C 195.707031 139.648438 192.109375 137.707031 191.847656 133.816406 C 191.601562 130.203125 185.933594 130.175781 186.179688 133.816406 " fill-opacity="1" fill-rule="nonzero"/><path fill="#72685f" d="M 148.886719 168.660156 C 149.28125 178.574219 148.242188 188.453125 145.746094 198.058594 C 144.546875 202.660156 142.957031 207.132812 141.355469 211.605469 C 139.972656 215.464844 138.480469 219.351562 136.136719 222.746094 C 134.078125 225.730469 130.578125 227.511719 127.507812 229.257812 C 124.066406 231.210938 120.835938 233.257812 117.722656 235.707031 C 111.175781 240.863281 104.707031 247.511719 102.875 255.929688 C 101.125 263.949219 103.625 272.320312 110.519531 277.105469 C 117.714844 282.101562 127.734375 282.121094 135.9375 280.042969 C 143.152344 278.21875 150.058594 274.484375 156.539062 270.925781 C 164.261719 266.683594 171.722656 261.992188 179.191406 257.324219 C 186.914062 252.496094 194.628906 247.613281 202.707031 243.386719 C 210.933594 239.085938 219.503906 235.523438 228.304688 232.578125 C 231.746094 231.425781 230.269531 225.957031 226.800781 227.121094 C 211.71875 232.167969 197.777344 239.199219 184.261719 247.507812 C 170.054688 256.238281 156.070312 266.140625 140.558594 272.46875 C 133.859375 275.199219 126.390625 276.738281 119.234375 274.855469 C 115.515625 273.878906 111.980469 271.898438 109.949219 268.539062 C 108.214844 265.675781 107.675781 262.246094 108.070312 258.949219 C 109.019531 250.980469 115.332031 244.816406 121.289062 240.058594 C 124.277344 237.675781 127.492188 235.785156 130.804688 233.894531 C 133.914062 232.117188 137.230469 230.226562 139.597656 227.484375 C 142.636719 223.964844 144.449219 219.464844 146.066406 215.164062 C 147.804688 210.542969 149.476562 205.863281 150.792969 201.097656 C 153.707031 190.566406 154.984375 179.574219 154.554688 168.660156 C 154.410156 165.027344 148.742188 165.007812 148.886719 168.660156 " fill-opacity="1" fill-rule="nonzero"/><path fill="#72685f" d="M 230.425781 229.171875 C 229.628906 225.613281 226.351562 223.394531 222.960938 222.621094 C 218.988281 221.71875 215.195312 222.675781 211.386719 223.84375 C 209.382812 224.457031 207.34375 225.136719 205.242188 225.285156 C 202.90625 225.453125 200.585938 225.101562 198.292969 224.691406 C 194.035156 223.933594 189.796875 223.140625 185.484375 223.945312 C 181.394531 224.703125 178.558594 227.125 176.203125 230.421875 C 175.246094 231.761719 174.363281 233.253906 173.039062 234.277344 C 171.519531 235.441406 169.476562 235.808594 167.621094 235.960938 C 163.558594 236.292969 159.519531 236.179688 155.46875 236.742188 C 151.511719 237.289062 147.613281 238.226562 143.847656 239.566406 C 135.214844 242.632812 127.253906 247.574219 121.003906 254.304688 C 118.527344 256.972656 122.523438 260.984375 125.011719 258.308594 C 129.972656 252.964844 136.089844 248.78125 142.828125 245.988281 C 149.9375 243.042969 157.269531 241.945312 164.914062 241.75 C 168.566406 241.65625 172.546875 241.386719 175.6875 239.304688 C 178.710938 237.296875 180.046875 234.050781 182.515625 231.546875 C 184.957031 229.074219 188.75 229.046875 191.988281 229.367188 C 196.214844 229.792969 200.339844 231.121094 204.625 230.976562 C 209.3125 230.820312 213.4375 228.613281 218.007812 227.96875 C 220.261719 227.648438 224.355469 227.96875 224.964844 230.675781 C 225.761719 234.226562 231.226562 232.722656 230.425781 229.171875 " fill-opacity="1" fill-rule="nonzero"/><path fill="#72685f" d="M 180.378906 225.351562 C 176.632812 225.746094 172.808594 225.570312 169.125 224.765625 C 165.011719 223.863281 161.179688 221.929688 157.003906 221.300781 C 154.671875 220.953125 152.273438 220.878906 149.984375 221.542969 C 147.832031 222.167969 145.234375 223.535156 144.59375 225.871094 C 143.597656 229.488281 147.535156 231.304688 150.039062 232.835938 C 154.421875 235.507812 158.820312 238.152344 163.222656 240.785156 C 166.359375 242.660156 169.210938 237.769531 166.082031 235.894531 C 162.402344 233.695312 158.730469 231.488281 155.066406 229.265625 C 153.9375 228.582031 152.8125 227.894531 151.6875 227.207031 C 151.277344 226.957031 150.871094 226.707031 150.464844 226.453125 C 150.332031 226.371094 150.175781 226.226562 150.03125 226.183594 C 149.460938 226.015625 150.253906 225.691406 150.15625 226.621094 C 150.027344 227.097656 149.898438 227.574219 149.769531 228.050781 C 150.078125 227.355469 151.539062 226.898438 152.632812 226.75 C 154.019531 226.558594 155.480469 226.710938 156.84375 226.996094 C 159.730469 227.601562 162.464844 228.777344 165.285156 229.613281 C 170.117188 231.042969 175.371094 231.539062 180.378906 231.015625 C 181.898438 230.855469 183.210938 229.828125 183.210938 228.183594 C 183.210938 226.777344 181.910156 225.191406 180.378906 225.351562 " fill-opacity="1" fill-rule="nonzero"/><path fill="#72685f" d="M 183.953125 255.359375 C 193.449219 262.480469 203.652344 268.628906 214.378906 273.71875 C 219.894531 276.335938 225.539062 278.691406 231.277344 280.765625 C 237.164062 282.894531 243.1875 284.980469 249.441406 285.636719 C 254.898438 286.214844 260.890625 285.34375 265.453125 282.109375 C 267.675781 280.53125 269.488281 278.53125 270.574219 276.011719 C 271.789062 273.199219 271.808594 270.222656 271.402344 267.238281 C 270.285156 259.109375 266.171875 252.144531 260.152344 246.65625 C 251.222656 238.515625 240.273438 232.589844 229.304688 227.699219 C 227.910156 227.074219 226.261719 227.292969 225.429688 228.714844 C 224.722656 229.921875 225.042969 231.960938 226.445312 232.585938 C 235.730469 236.726562 244.984375 241.570312 252.953125 247.9375 C 258.929688 252.714844 263.625 257.929688 265.398438 265.574219 C 266.253906 269.269531 266.578125 273.355469 263.691406 276.25 C 260.273438 279.671875 255.007812 280.414062 250.394531 280.0625 C 244.753906 279.632812 239.207031 277.589844 233.910156 275.710938 C 228.707031 273.867188 223.589844 271.789062 218.582031 269.460938 C 207.367188 264.253906 196.703125 257.890625 186.8125 250.472656 C 185.585938 249.554688 183.644531 250.273438 182.9375 251.488281 C 182.089844 252.933594 182.722656 254.4375 183.953125 255.359375 " fill-opacity="1" fill-rule="nonzero"/><path fill="#72685f" d="M 250.453125 260.527344 C 238.0625 246.277344 217.988281 243.199219 200.332031 240.621094 C 198.820312 240.398438 197.289062 240.992188 196.847656 242.597656 C 196.480469 243.925781 197.300781 245.855469 198.824219 246.078125 C 215.472656 248.507812 234.738281 251.0625 246.445312 264.53125 C 248.84375 267.289062 252.835938 263.269531 250.453125 260.527344 " fill-opacity="1" fill-rule="nonzero"/><path fill="#72685f" d="M 117.859375 242.792969 C 124.902344 234.8125 130.363281 225.695312 134.066406 215.71875 C 137.933594 205.292969 139.738281 194.285156 141.28125 183.320312 C 141.945312 178.589844 142.449219 173.835938 143.113281 169.105469 C 143.507812 166.273438 144.027344 163.550781 145.285156 161.515625 C 145.933594 160.457031 146.542969 159.832031 147.617188 158.757812 C 148.621094 157.757812 149.867188 156.601562 150.867188 155.847656 C 153.910156 153.542969 157.445312 151.976562 161.003906 150.65625 C 169.429688 147.527344 181.472656 145.882812 182.527344 134.921875 C 182.671875 133.398438 181.117188 132.089844 179.691406 132.089844 C 178.039062 132.089844 177.003906 133.390625 176.859375 134.921875 C 176.535156 138.300781 173.574219 140.15625 170.703125 141.359375 C 166.820312 142.984375 162.675781 143.984375 158.734375 145.484375 C 152.042969 148.039062 145.65625 151.613281 141.253906 157.421875 C 137.164062 162.820312 137.300781 170.5 136.484375 176.914062 C 135.121094 187.613281 133.574219 198.414062 130.4375 208.757812 C 127.070312 219.84375 121.53125 230.089844 113.855469 238.789062 C 111.453125 241.511719 115.445312 245.53125 117.859375 242.792969 " fill-opacity="1" fill-rule="nonzero"/><path fill="#72685f" d="M 208.992188 168.652344 C 209.871094 188.570312 214.46875 208.058594 222.328125 226.367188 C 222.929688 227.769531 225 228.085938 226.203125 227.382812 C 227.65625 226.53125 227.824219 224.921875 227.21875 223.507812 C 219.777344 206.167969 215.488281 187.5 214.65625 168.652344 C 214.496094 165.027344 208.832031 165.007812 208.992188 168.652344 " fill-opacity="1" fill-rule="nonzero"/><path fill="#72685f" d="M 169.574219 149.910156 C 179.917969 156.101562 193.582031 155.730469 203.347656 148.535156 C 204.578125 147.628906 205.195312 146.082031 204.363281 144.664062 C 203.652344 143.453125 201.726562 142.734375 200.488281 143.648438 C 192.277344 149.695312 181.199219 150.269531 172.433594 145.019531 C 169.296875 143.144531 166.445312 148.035156 169.574219 149.910156 " fill-opacity="1" fill-rule="nonzero"/><path fill="#72685f" d="M 139.210938 227.640625 C 142.027344 228.957031 145.003906 229.628906 148.117188 229.453125 C 151.742188 229.246094 151.765625 223.585938 148.117188 223.792969 C 146.03125 223.910156 143.980469 223.644531 142.074219 222.753906 C 140.6875 222.101562 139.019531 222.367188 138.195312 223.765625 C 137.476562 224.996094 137.820312 226.988281 139.210938 227.640625 " fill-opacity="1" fill-rule="nonzero"/><path fill="#72685f" d="M 183.992188 250.367188 C 181.824219 245.503906 178.640625 241.15625 174.773438 237.5 C 172.128906 234.996094 168.113281 238.992188 170.769531 241.503906 C 174.316406 244.859375 177.109375 248.757812 179.101562 253.226562 C 179.722656 254.621094 181.757812 254.949219 182.976562 254.238281 C 184.414062 253.398438 184.617188 251.769531 183.992188 250.367188 " fill-opacity="1" fill-rule="nonzero"/><path fill="#72685f" d="M 163.488281 226.515625 C 175.746094 220.039062 183.796875 206.992188 184.320312 193.183594 C 184.460938 189.539062 178.792969 189.546875 178.65625 193.183594 C 178.203125 205.0625 171.113281 216.085938 160.625 221.625 C 157.402344 223.328125 160.261719 228.21875 163.488281 226.515625 " fill-opacity="1" fill-rule="nonzero"/><path fill="#72685f" d="M 189.269531 228.390625 C 195.625 225.71875 200.898438 221.386719 204.574219 215.527344 C 206.515625 212.433594 201.617188 209.585938 199.683594 212.671875 C 196.855469 217.171875 192.683594 220.863281 187.761719 222.933594 C 186.355469 223.527344 185.339844 224.804688 185.785156 226.414062 C 186.148438 227.742188 187.847656 228.988281 189.269531 228.390625 " fill-opacity="1" fill-rule="nonzero"/><path fill="#72685f" d="M 83.765625 221.09375 C 85.382812 212.425781 90.957031 205.425781 96.277344 198.664062 C 101.835938 191.597656 107.539062 184.273438 109.550781 175.316406 C 107.824219 175.539062 106.097656 175.765625 104.375 175.988281 C 109.257812 185.417969 112.34375 196.882812 107.835938 207.070312 C 105.863281 211.527344 102.5 215.375 97.964844 217.320312 C 93.816406 219.097656 88.914062 219.308594 84.839844 217.230469 C 81.597656 215.578125 78.726562 220.460938 81.980469 222.121094 C 90.476562 226.453125 101.050781 224.144531 107.625 217.410156 C 114.640625 210.21875 116.644531 199.75 115.179688 190.089844 C 114.277344 184.132812 112.027344 178.460938 109.265625 173.132812 C 108.164062 171.007812 104.613281 171.472656 104.085938 173.808594 C 102.15625 182.421875 96.429688 189.359375 91.105469 196.144531 C 85.582031 203.179688 79.984375 210.589844 78.300781 219.589844 C 78.019531 221.089844 78.714844 222.640625 80.277344 223.070312 C 81.660156 223.449219 83.480469 222.605469 83.765625 221.09375 " fill-opacity="1" fill-rule="nonzero"/><path fill="#72685f" d="M 83.933594 219.363281 C 84.75 202.253906 86.65625 185.214844 89.675781 168.351562 C 88.289062 168.917969 86.902344 169.480469 85.515625 170.042969 C 91.992188 174.378906 96.195312 181.757812 96.628906 189.53125 C 96.832031 193.15625 102.5 193.179688 102.292969 189.53125 C 101.746094 179.671875 96.589844 170.652344 88.375 165.15625 C 86.949219 164.203125 84.527344 165.101562 84.214844 166.847656 C 81.105469 184.207031 79.105469 201.753906 78.265625 219.363281 C 78.09375 223.007812 83.757812 222.996094 83.933594 219.363281 " fill-opacity="1" fill-rule="nonzero"/><path fill="#72685f" d="M 160.597656 320.921875 C 162.417969 301.601562 174.144531 284.246094 191.265625 275.164062 C 196.03125 272.636719 201.109375 270.835938 206.378906 269.691406 C 209.9375 268.914062 208.433594 263.457031 204.871094 264.230469 C 184.074219 268.757812 166.816406 283.617188 159.035156 303.359375 C 156.8125 308.992188 155.5 314.902344 154.929688 320.921875 C 154.785156 322.445312 156.335938 323.753906 157.761719 323.753906 C 159.414062 323.753906 160.453125 322.453125 160.597656 320.921875 " fill-opacity="1" fill-rule="nonzero"/><path fill="#72685f" d="M 264.148438 284.765625 C 265.503906 285.191406 266.734375 286.167969 267.507812 287.515625 C 268.265625 288.84375 270.074219 289.296875 271.382812 288.53125 C 272.71875 287.753906 273.160156 285.992188 272.398438 284.660156 C 270.910156 282.0625 268.507812 280.195312 265.652344 279.308594 C 264.191406 278.855469 262.566406 279.847656 262.167969 281.285156 C 261.753906 282.804688 262.683594 284.3125 264.148438 284.765625 " fill-opacity="1" fill-rule="nonzero"/><path fill="#72685f" d="M 184.164062 324.238281 C 187.238281 314.550781 193.9375 306.152344 202.613281 300.859375 C 211.792969 295.261719 222.882812 293.535156 233.371094 295.890625 C 239.445312 297.257812 245.273438 299.855469 250.183594 303.707031 C 251.386719 304.652344 253.015625 304.878906 254.1875 303.707031 C 255.171875 302.726562 255.398438 300.65625 254.1875 299.707031 C 244.324219 291.964844 231.625 288.105469 219.097656 289.46875 C 207.1875 290.765625 196.132812 296.585938 188.296875 305.652344 C 183.972656 310.660156 180.703125 316.425781 178.699219 322.734375 C 177.597656 326.214844 183.066406 327.703125 184.164062 324.238281 " fill-opacity="1" fill-rule="nonzero"/><path fill="#72685f" d="M 86.515625 246.179688 C 94.167969 243.378906 102.382812 242.652344 110.378906 244.296875 C 113.9375 245.027344 115.460938 239.574219 111.886719 238.835938 C 102.921875 236.996094 93.617188 237.570312 85.007812 240.71875 C 81.613281 241.964844 83.078125 247.4375 86.515625 246.179688 " fill-opacity="1" fill-rule="nonzero"/><path fill="#72685f" d="M 156.789062 271.300781 C 161.710938 276.75 165.148438 283.296875 166.941406 290.40625 C 167.835938 293.9375 173.300781 292.441406 172.40625 288.902344 C 170.371094 280.84375 166.363281 273.464844 160.796875 267.296875 C 158.347656 264.585938 154.351562 268.597656 156.789062 271.300781 " fill-opacity="1" fill-rule="nonzero"/><path fill="#72685f" d="M 96.851562 270.796875 C 98.6875 269.957031 100.804688 269.703125 102.792969 270.058594 C 104.296875 270.328125 105.847656 269.648438 106.277344 268.082031 C 106.65625 266.710938 105.8125 264.871094 104.300781 264.597656 C 100.6875 263.953125 97.328125 264.386719 93.988281 265.910156 C 92.597656 266.542969 92.257812 268.554688 92.972656 269.78125 C 93.8125 271.210938 95.453125 271.433594 96.851562 270.796875 " fill-opacity="1" fill-rule="nonzero"/><path fill="#72685f" d="M 132.933594 281.472656 C 141.8125 289.472656 144.949219 302.464844 140.800781 313.648438 C 140.269531 315.082031 141.394531 316.75 142.777344 317.132812 C 144.363281 317.566406 145.730469 316.59375 146.261719 315.15625 C 151.0625 302.214844 147.183594 286.699219 136.9375 277.46875 C 134.238281 275.035156 130.21875 279.027344 132.933594 281.472656 " fill-opacity="1" fill-rule="nonzero"/><path fill="#72685f" d="M 257.9375 244.816406 C 266.507812 234.871094 279.058594 228.894531 292.214844 228.703125 C 295.859375 228.648438 295.867188 222.988281 292.214844 223.042969 C 277.65625 223.253906 263.445312 229.773438 253.929688 240.816406 C 251.5625 243.5625 255.554688 247.585938 257.9375 244.816406 " fill-opacity="1" fill-rule="nonzero"/><path fill="#72685f" d="M 271.324219 260.683594 C 275.300781 256.140625 281.496094 254.046875 287.398438 255.523438 C 290.9375 256.40625 292.445312 250.949219 288.90625 250.066406 C 281.144531 248.125 272.609375 250.636719 267.316406 256.679688 C 264.925781 259.410156 268.914062 263.429688 271.324219 260.683594 " fill-opacity="1" fill-rule="nonzero"/><g clip-path="url(#7e4de97e49)"><path fill="#72685f" d="M 292.738281 216.234375 C 282.769531 216.558594 271.511719 215.640625 264.429688 207.722656 C 256.492188 198.839844 256.5625 185.816406 256.546875 174.640625 C 255.128906 175.457031 253.707031 176.273438 252.285156 177.085938 C 261.355469 183.503906 272.59375 186.605469 281.046875 193.921875 C 288.761719 200.605469 291.273438 211.542969 290.898438 221.394531 C 290.761719 225.039062 296.425781 225.03125 296.566406 221.394531 C 296.890625 212.816406 295.113281 203.484375 290.464844 196.15625 C 285.539062 188.394531 276.972656 183.996094 268.992188 180.003906 C 264.25 177.632812 259.488281 175.269531 255.144531 172.199219 C 253.347656 170.925781 250.882812 172.636719 250.882812 174.640625 C 250.898438 184.992188 251.101562 195.675781 255.894531 205.105469 C 260.1875 213.539062 267.941406 218.867188 277.105469 220.789062 C 282.242188 221.863281 287.511719 222.066406 292.738281 221.898438 C 296.375 221.777344 296.390625 216.117188 292.738281 216.234375 " fill-opacity="1" fill-rule="nonzero"/></g><path fill="#72685f" d="M 290.75 219.5 C 281.214844 219.933594 271.09375 220.113281 262.136719 216.296875 C 258.566406 214.777344 255.238281 212.605469 252.507812 209.84375 C 251.242188 208.5625 250.132812 207.179688 249.199219 205.640625 C 248.71875 204.851562 248.265625 204.027344 247.898438 203.179688 C 247.71875 202.773438 247.566406 202.355469 247.421875 201.933594 C 247.230469 201.382812 247.324219 200.421875 246.894531 201.195312 C 246.554688 201.535156 246.214844 201.875 245.878906 202.210938 C 245.417969 202.175781 245.453125 202.164062 245.976562 202.171875 C 246.40625 202.175781 246.835938 202.183594 247.261719 202.1875 C 248.121094 202.199219 248.980469 202.207031 249.839844 202.222656 C 251.554688 202.242188 253.269531 202.261719 254.988281 202.285156 C 258.632812 202.328125 258.636719 196.667969 254.988281 196.621094 C 252.199219 196.589844 249.410156 196.542969 246.621094 196.519531 C 243.988281 196.496094 241.382812 197.550781 241.339844 200.59375 C 241.304688 202.730469 242.527344 205.160156 243.480469 207.019531 C 244.472656 208.960938 245.757812 210.753906 247.175781 212.410156 C 253.457031 219.734375 262.828125 223.429688 272.195312 224.691406 C 278.355469 225.519531 284.554688 225.441406 290.75 225.160156 C 294.382812 224.992188 294.402344 219.332031 290.75 219.5 " fill-opacity="1" fill-rule="nonzero"/><path fill="#72685f" d="M 104.546875 165.09375 C 108.191406 165.09375 108.199219 159.433594 104.546875 159.433594 C 100.902344 159.433594 100.894531 165.09375 104.546875 165.09375 " fill-opacity="1" fill-rule="nonzero"/><path fill="#72685f" d="M 242.640625 186.824219 C 242.8125 186.824219 242.980469 186.824219 243.148438 186.824219 C 243.875 186.824219 244.636719 186.511719 245.152344 185.996094 C 245.425781 185.742188 245.625 185.4375 245.738281 185.085938 C 245.914062 184.746094 245.996094 184.382812 245.980469 183.996094 C 245.949219 183.261719 245.707031 182.503906 245.152344 181.996094 C 244.597656 181.484375 243.917969 181.164062 243.148438 181.164062 C 242.980469 181.164062 242.8125 181.164062 242.640625 181.164062 C 241.917969 181.164062 241.152344 181.480469 240.636719 181.996094 C 240.363281 182.25 240.167969 182.554688 240.054688 182.902344 C 239.875 183.242188 239.792969 183.605469 239.808594 183.996094 C 239.84375 184.726562 240.082031 185.488281 240.636719 185.996094 C 241.191406 186.503906 241.875 186.824219 242.640625 186.824219 " fill-opacity="1" fill-rule="nonzero"/><path fill="#72685f" d="M 94.429688 233.828125 C 98.074219 233.828125 98.082031 228.167969 94.429688 228.167969 C 90.785156 228.167969 90.777344 233.828125 94.429688 233.828125 " fill-opacity="1" fill-rule="nonzero"/><path fill="#72685f" d="M 256.808594 228.773438 C 260.453125 228.773438 260.457031 223.113281 256.808594 223.113281 C 253.160156 223.113281 253.15625 228.773438 256.808594 228.773438 " fill-opacity="1" fill-rule="nonzero"/><path fill="#72685f" d="M 116.058594 223.210938 C 119.703125 223.210938 119.710938 217.550781 116.058594 217.550781 C 112.414062 217.550781 112.40625 223.210938 116.058594 223.210938 " fill-opacity="1" fill-rule="nonzero"/><path fill="#72685f" d="M 124.824219 195.3125 C 124.601562 195.3125 124.375 195.3125 124.152344 195.3125 C 123.425781 195.3125 122.660156 195.628906 122.148438 196.140625 C 121.871094 196.398438 121.675781 196.703125 121.5625 197.050781 C 121.386719 197.390625 121.304688 197.753906 121.320312 198.144531 C 121.351562 198.875 121.589844 199.632812 122.148438 200.144531 C 122.703125 200.652344 123.382812 200.972656 124.152344 200.972656 C 124.375 200.972656 124.601562 200.972656 124.824219 200.972656 C 125.550781 200.972656 126.316406 200.65625 126.828125 200.144531 C 127.105469 199.886719 127.300781 199.582031 127.414062 199.234375 C 127.59375 198.894531 127.675781 198.53125 127.660156 198.144531 C 127.625 197.410156 127.386719 196.652344 126.828125 196.140625 C 126.273438 195.632812 125.59375 195.3125 124.824219 195.3125 " fill-opacity="1" fill-rule="nonzero"/><path fill="#72685f" d="M 122.128906 178.734375 C 125.773438 178.734375 125.78125 173.074219 122.128906 173.074219 C 118.484375 173.074219 118.476562 178.734375 122.128906 178.734375 " fill-opacity="1" fill-rule="nonzero"/><path fill="#72685f" d="M 245.558594 158.246094 C 245.335938 158.246094 245.109375 158.246094 244.886719 158.246094 C 244.160156 158.246094 243.394531 158.5625 242.882812 159.078125 C 242.605469 159.332031 242.410156 159.636719 242.296875 159.988281 C 242.121094 160.324219 242.039062 160.6875 242.054688 161.078125 C 242.085938 161.808594 242.324219 162.570312 242.882812 163.078125 C 243.4375 163.585938 244.117188 163.910156 244.886719 163.910156 C 245.109375 163.910156 245.335938 163.910156 245.558594 163.910156 C 246.285156 163.910156 247.050781 163.59375 247.5625 163.078125 C 247.839844 162.824219 248.035156 162.519531 248.148438 162.167969 C 248.328125 161.832031 248.410156 161.46875 248.394531 161.078125 C 248.359375 160.34375 248.121094 159.585938 247.5625 159.078125 C 247.007812 158.570312 246.328125 158.246094 245.558594 158.246094 " fill-opacity="1" fill-rule="nonzero"/><g fill="#72685f" fill-opacity="1"><g transform="translate(81.93467, 106.349863)"><g><path d="M -9.59375 -26.625 C -9.28125 -27.101562 -8.878906 -27.40625 -8.390625 -27.53125 C -7.910156 -27.65625 -7.441406 -27.566406 -6.984375 -27.265625 C -6.503906 -26.960938 -6.222656 -26.566406 -6.140625 -26.078125 C -6.054688 -25.597656 -6.171875 -25.117188 -6.484375 -24.640625 L -9.21875 -20.390625 L 4.9375 -11.265625 C 5.394531 -10.960938 5.671875 -10.539062 5.765625 -10 C 5.867188 -9.457031 5.753906 -8.929688 5.421875 -8.421875 C 5.097656 -7.921875 4.671875 -7.609375 4.140625 -7.484375 C 3.617188 -7.367188 3.128906 -7.460938 2.671875 -7.765625 L -11.484375 -16.890625 L -14.21875 -12.640625 C -14.53125 -12.160156 -14.925781 -11.859375 -15.40625 -11.734375 C -15.894531 -11.609375 -16.367188 -11.695312 -16.828125 -12 C -17.273438 -12.289062 -17.539062 -12.6875 -17.625 -13.1875 C -17.71875 -13.6875 -17.617188 -14.164062 -17.328125 -14.625 Z M -9.59375 -26.625 "/></g></g></g><g fill="#72685f" fill-opacity="1"><g transform="translate(98.608704, 82.302397)"><g><path d="M -1.75 -29.015625 C -1.34375 -29.390625 -0.890625 -29.554688 -0.390625 -29.515625 C 0.109375 -29.484375 0.550781 -29.257812 0.9375 -28.84375 L 8.8125 -20.296875 C 10.019531 -18.984375 10.8125 -17.566406 11.1875 -16.046875 C 11.5625 -14.523438 11.515625 -13.023438 11.046875 -11.546875 C 10.585938 -10.066406 9.722656 -8.742188 8.453125 -7.578125 C 7.171875 -6.398438 5.765625 -5.628906 4.234375 -5.265625 C 2.710938 -4.910156 1.210938 -4.984375 -0.265625 -5.484375 C -1.742188 -5.984375 -3.085938 -6.890625 -4.296875 -8.203125 L -12.171875 -16.75 C -12.546875 -17.15625 -12.71875 -17.628906 -12.6875 -18.171875 C -12.65625 -18.710938 -12.421875 -19.1875 -11.984375 -19.59375 C -11.609375 -19.9375 -11.148438 -20.097656 -10.609375 -20.078125 C -10.066406 -20.066406 -9.609375 -19.859375 -9.234375 -19.453125 L -1.359375 -10.90625 C -0.660156 -10.144531 0.125 -9.617188 1 -9.328125 C 1.875 -9.046875 2.734375 -9.003906 3.578125 -9.203125 C 4.429688 -9.398438 5.1875 -9.800781 5.84375 -10.40625 C 6.519531 -11.03125 7.003906 -11.769531 7.296875 -12.625 C 7.597656 -13.488281 7.648438 -14.378906 7.453125 -15.296875 C 7.265625 -16.210938 6.820312 -17.050781 6.125 -17.8125 L -1.75 -26.359375 C -2.132812 -26.773438 -2.332031 -27.226562 -2.34375 -27.71875 C -2.351562 -28.207031 -2.15625 -28.640625 -1.75 -29.015625 Z M -1.75 -29.015625 "/></g></g></g><g fill="#72685f" fill-opacity="1"><g transform="translate(122.645768, 61.707525)"><g><path d="M 6.96875 -28.921875 C 7.414062 -29.148438 7.859375 -29.1875 8.296875 -29.03125 C 8.742188 -28.875 9.085938 -28.570312 9.328125 -28.125 L 17.9375 -11.484375 C 18.1875 -10.992188 18.226562 -10.492188 18.0625 -9.984375 C 17.90625 -9.472656 17.582031 -9.09375 17.09375 -8.84375 C 16.820312 -8.707031 16.535156 -8.613281 16.234375 -8.5625 C 15.929688 -8.519531 15.6875 -8.546875 15.5 -8.640625 L -1.84375 -16.515625 L 4.453125 -4.328125 C 4.691406 -3.878906 4.742188 -3.425781 4.609375 -2.96875 C 4.472656 -2.507812 4.160156 -2.15625 3.671875 -1.90625 C 3.222656 -1.664062 2.773438 -1.625 2.328125 -1.78125 C 1.890625 -1.945312 1.550781 -2.253906 1.3125 -2.703125 L -7.296875 -19.34375 C -7.546875 -19.832031 -7.585938 -20.328125 -7.421875 -20.828125 C -7.265625 -21.335938 -6.9375 -21.722656 -6.4375 -21.984375 C -6.164062 -22.117188 -5.859375 -22.203125 -5.515625 -22.234375 C -5.179688 -22.273438 -4.90625 -22.226562 -4.6875 -22.09375 L 12.5625 -14.25 L 6.21875 -26.515625 C 5.976562 -26.960938 5.925781 -27.414062 6.0625 -27.875 C 6.207031 -28.332031 6.507812 -28.679688 6.96875 -28.921875 Z M 6.96875 -28.921875 "/></g></g></g><g fill="#72685f" fill-opacity="1"><g transform="translate(152.270476, 47.931937)"><g><path d="M 19.03125 -6.78125 C 19.1875 -6.539062 19.289062 -6.300781 19.34375 -6.0625 C 19.457031 -5.53125 19.375 -5.050781 19.09375 -4.625 C 18.820312 -4.195312 18.457031 -3.929688 18 -3.828125 C 17.625 -3.742188 17.253906 -3.78125 16.890625 -3.9375 C 16.535156 -4.101562 16.238281 -4.367188 16 -4.734375 L 13.515625 -8.171875 L 4.171875 -6.09375 L 3.375 -1.90625 C 3.332031 -1.476562 3.179688 -1.117188 2.921875 -0.828125 C 2.660156 -0.546875 2.359375 -0.363281 2.015625 -0.28125 C 1.460938 -0.15625 1.015625 -0.207031 0.671875 -0.4375 C 0.335938 -0.675781 0.113281 -1.050781 0 -1.5625 C -0.0390625 -1.738281 -0.0546875 -1.941406 -0.046875 -2.171875 L 3.59375 -22.65625 C 3.664062 -23.101562 3.84375 -23.484375 4.125 -23.796875 C 4.40625 -24.109375 4.765625 -24.28125 5.203125 -24.3125 C 5.578125 -24.394531 5.953125 -24.363281 6.328125 -24.21875 C 6.703125 -24.070312 7.003906 -23.816406 7.234375 -23.453125 Z M 4.90625 -10.046875 L 11.1875 -11.4375 L 6.40625 -18.0625 Z M 4.90625 -10.046875 "/></g></g></g><g fill="#72685f" fill-opacity="1"><g transform="translate(181.988134, 42.937663)"><g/></g></g><g fill="#72685f" fill-opacity="1"><g transform="translate(200.65714, 43.030992)"><g><path d="M 17.984375 -9.25 C 19.015625 -8.582031 19.789062 -7.726562 20.3125 -6.6875 C 20.832031 -5.65625 20.957031 -4.421875 20.6875 -2.984375 C 20.195312 -0.484375 19.144531 1.117188 17.53125 1.828125 C 15.914062 2.546875 14.125 2.71875 12.15625 2.34375 L 4.296875 0.828125 C 3.742188 0.722656 3.316406 0.445312 3.015625 0 C 2.722656 -0.4375 2.628906 -0.925781 2.734375 -1.46875 L 6.234375 -19.703125 C 6.335938 -20.242188 6.609375 -20.660156 7.046875 -20.953125 C 7.492188 -21.253906 7.992188 -21.351562 8.546875 -21.25 L 16.5 -19.71875 C 20.488281 -18.945312 22.125 -16.691406 21.40625 -12.953125 C 21.21875 -12.003906 20.828125 -11.210938 20.234375 -10.578125 C 19.648438 -9.941406 18.898438 -9.5 17.984375 -9.25 Z M 17.15625 -13.046875 C 17.320312 -13.910156 17.234375 -14.597656 16.890625 -15.109375 C 16.546875 -15.628906 15.984375 -15.960938 15.203125 -16.109375 L 9.984375 -17.109375 L 9.046875 -12.1875 L 14.359375 -11.171875 C 14.992188 -11.046875 15.582031 -11.148438 16.125 -11.484375 C 16.675781 -11.816406 17.019531 -12.335938 17.15625 -13.046875 Z M 12.859375 -1.28125 C 13.835938 -1.09375 14.65625 -1.207031 15.3125 -1.625 C 15.96875 -2.050781 16.394531 -2.769531 16.59375 -3.78125 C 16.832031 -5.019531 16.660156 -5.890625 16.078125 -6.390625 C 15.503906 -6.898438 14.742188 -7.242188 13.796875 -7.421875 L 8.328125 -8.46875 L 7.15625 -2.375 Z M 12.859375 -1.28125 "/></g></g></g><g fill="#72685f" fill-opacity="1"><g transform="translate(230.010377, 49.672312)"><g><path d="M 25.6875 0.015625 C 24.75 1.921875 23.472656 3.460938 21.859375 4.640625 C 20.242188 5.816406 18.460938 6.503906 16.515625 6.703125 C 14.578125 6.898438 12.671875 6.546875 10.796875 5.640625 C 8.929688 4.722656 7.476562 3.4375 6.4375 1.78125 C 5.40625 0.125 4.851562 -1.695312 4.78125 -3.6875 C 4.71875 -5.6875 5.15625 -7.640625 6.09375 -9.546875 C 7.019531 -11.441406 8.289062 -12.976562 9.90625 -14.15625 C 11.519531 -15.34375 13.296875 -16.035156 15.234375 -16.234375 C 17.171875 -16.429688 19.070312 -16.070312 20.9375 -15.15625 C 22.8125 -14.25 24.269531 -12.96875 25.3125 -11.3125 C 26.351562 -9.65625 26.90625 -7.828125 26.96875 -5.828125 C 27.039062 -3.828125 26.613281 -1.878906 25.6875 0.015625 Z M 21.9375 -1.8125 C 22.5625 -3.09375 22.867188 -4.378906 22.859375 -5.671875 C 22.847656 -6.972656 22.53125 -8.160156 21.90625 -9.234375 C 21.289062 -10.304688 20.40625 -11.125 19.25 -11.6875 C 18.082031 -12.257812 16.894531 -12.46875 15.6875 -12.3125 C 14.476562 -12.15625 13.359375 -11.664062 12.328125 -10.84375 C 11.304688 -10.03125 10.484375 -8.984375 9.859375 -7.703125 C 9.222656 -6.410156 8.898438 -5.113281 8.890625 -3.8125 C 8.878906 -2.507812 9.179688 -1.328125 9.796875 -0.265625 C 10.421875 0.785156 11.316406 1.597656 12.484375 2.171875 C 13.640625 2.734375 14.828125 2.929688 16.046875 2.765625 C 17.273438 2.597656 18.40625 2.113281 19.4375 1.3125 C 20.46875 0.519531 21.300781 -0.519531 21.9375 -1.8125 Z M 21.9375 -1.8125 "/></g></g></g><g fill="#72685f" fill-opacity="1"><g transform="translate(259.364284, 65.375359)"><g><path d="M 24.703125 7.046875 C 23.273438 8.628906 21.625 9.757812 19.75 10.4375 C 17.875 11.125 15.972656 11.296875 14.046875 10.953125 C 12.128906 10.617188 10.394531 9.757812 8.84375 8.375 C 7.300781 6.988281 6.253906 5.351562 5.703125 3.46875 C 5.148438 1.59375 5.113281 -0.304688 5.59375 -2.234375 C 6.082031 -4.171875 7.039062 -5.929688 8.46875 -7.515625 C 9.875 -9.085938 11.507812 -10.222656 13.375 -10.921875 C 15.25 -11.617188 17.148438 -11.796875 19.078125 -11.453125 C 21.015625 -11.109375 22.753906 -10.242188 24.296875 -8.859375 C 25.847656 -7.472656 26.894531 -5.84375 27.4375 -3.96875 C 27.976562 -2.09375 28.007812 -0.179688 27.53125 1.765625 C 27.050781 3.710938 26.109375 5.472656 24.703125 7.046875 Z M 21.609375 4.25 C 22.554688 3.1875 23.203125 2.023438 23.546875 0.765625 C 23.898438 -0.484375 23.921875 -1.703125 23.609375 -2.890625 C 23.304688 -4.085938 22.675781 -5.117188 21.71875 -5.984375 C 20.75 -6.847656 19.660156 -7.367188 18.453125 -7.546875 C 17.242188 -7.734375 16.035156 -7.570312 14.828125 -7.0625 C 13.617188 -6.5625 12.539062 -5.78125 11.59375 -4.71875 C 10.625 -3.644531 9.957031 -2.484375 9.59375 -1.234375 C 9.226562 0.015625 9.195312 1.234375 9.5 2.421875 C 9.8125 3.609375 10.453125 4.632812 11.421875 5.5 C 12.378906 6.363281 13.46875 6.878906 14.6875 7.046875 C 15.914062 7.210938 17.132812 7.054688 18.34375 6.578125 C 19.550781 6.097656 20.640625 5.320312 21.609375 4.25 Z M 21.609375 4.25 "/></g></g></g><g fill="#72685f" fill-opacity="1"><g transform="translate(283.259753, 88.702482)"><g><path d="M 13.484375 14.625 C 13.410156 14.84375 13.296875 15.050781 13.140625 15.25 C 12.984375 15.457031 12.816406 15.617188 12.640625 15.734375 C 12.148438 16.054688 11.625 16.132812 11.0625 15.96875 C 10.5 15.8125 10.0625 15.488281 9.75 15 C 9.59375 14.769531 9.5 14.507812 9.46875 14.21875 C 9.4375 13.9375 9.46875 13.660156 9.5625 13.390625 L 13.5 2.546875 L 9.375 1.578125 L 5.140625 4.328125 C 4.660156 4.640625 4.164062 4.734375 3.65625 4.609375 C 3.144531 4.492188 2.726562 4.191406 2.40625 3.703125 C 2.082031 3.210938 1.972656 2.707031 2.078125 2.1875 C 2.191406 1.664062 2.484375 1.253906 2.953125 0.953125 L 18.53125 -9.171875 C 18.988281 -9.460938 19.476562 -9.550781 20 -9.4375 C 20.53125 -9.320312 20.960938 -9.007812 21.296875 -8.5 C 21.609375 -8.019531 21.707031 -7.523438 21.59375 -7.015625 C 21.488281 -6.515625 21.195312 -6.109375 20.71875 -5.796875 L 13.390625 -1.03125 L 27.46875 2.078125 C 28.144531 2.222656 28.632812 2.53125 28.9375 3 C 29.207031 3.414062 29.265625 3.875 29.109375 4.375 C 28.960938 4.882812 28.703125 5.265625 28.328125 5.515625 C 27.953125 5.753906 27.5 5.816406 26.96875 5.703125 L 17.546875 3.46875 Z M 13.484375 14.625 "/></g></g></g><g fill="#72685f" fill-opacity="1"><g transform="translate(67.700555, 298.370474)"><g><path d="M 15.75 0.78125 C 15.882812 0.988281 15.9375 1.203125 15.90625 1.421875 C 15.882812 1.648438 15.769531 1.832031 15.5625 1.96875 C 15.351562 2.113281 15.144531 2.15625 14.9375 2.09375 C 14.726562 2.039062 14.554688 1.910156 14.421875 1.703125 L 12.609375 -0.90625 L 4.34375 4.796875 C 4.144531 4.929688 3.929688 4.972656 3.703125 4.921875 C 3.472656 4.878906 3.28125 4.75 3.125 4.53125 C 2.976562 4.3125 2.921875 4.082031 2.953125 3.84375 C 2.992188 3.613281 3.113281 3.429688 3.3125 3.296875 L 11.578125 -2.40625 L 9.78125 -5 C 9.632812 -5.21875 9.578125 -5.429688 9.609375 -5.640625 C 9.640625 -5.859375 9.757812 -6.035156 9.96875 -6.171875 C 10.164062 -6.304688 10.367188 -6.351562 10.578125 -6.3125 C 10.785156 -6.269531 10.960938 -6.140625 11.109375 -5.921875 Z M 15.75 0.78125 "/></g></g></g><g fill="#72685f" fill-opacity="1"><g transform="translate(78.592196, 313.328298)"><g><path d="M 16.21875 -0.921875 C 16.382812 -0.742188 16.460938 -0.539062 16.453125 -0.3125 C 16.441406 -0.09375 16.34375 0.0976562 16.15625 0.265625 L 11.125 4.9375 C 10.425781 5.582031 9.660156 6.003906 8.828125 6.203125 C 7.992188 6.398438 7.171875 6.367188 6.359375 6.109375 C 5.554688 5.859375 4.84375 5.398438 4.21875 4.734375 C 3.582031 4.054688 3.171875 3.300781 2.984375 2.46875 C 2.796875 1.632812 2.832031 0.8125 3.09375 0 C 3.363281 -0.800781 3.847656 -1.523438 4.546875 -2.171875 L 9.578125 -6.84375 C 9.765625 -7.007812 9.96875 -7.085938 10.1875 -7.078125 C 10.414062 -7.066406 10.617188 -6.960938 10.796875 -6.765625 C 10.953125 -6.597656 11.03125 -6.394531 11.03125 -6.15625 C 11.03125 -5.914062 10.941406 -5.71875 10.765625 -5.5625 L 5.734375 -0.890625 C 5.273438 -0.472656 4.957031 0.00390625 4.78125 0.546875 C 4.613281 1.097656 4.59375 1.640625 4.71875 2.171875 C 4.84375 2.703125 5.09375 3.171875 5.46875 3.578125 C 5.851562 3.992188 6.3125 4.289062 6.84375 4.46875 C 7.375 4.644531 7.921875 4.671875 8.484375 4.546875 C 9.046875 4.421875 9.554688 4.148438 10.015625 3.734375 L 15.046875 -0.9375 C 15.234375 -1.101562 15.429688 -1.1875 15.640625 -1.1875 C 15.859375 -1.195312 16.050781 -1.109375 16.21875 -0.921875 Z M 15.28125 -7.640625 C 15.820312 -7.578125 16.265625 -7.363281 16.609375 -7 C 17.015625 -6.550781 17.191406 -6.128906 17.140625 -5.734375 C 17.097656 -5.347656 16.9375 -5.023438 16.65625 -4.765625 C 16.519531 -4.628906 16.375 -4.535156 16.21875 -4.484375 C 16.0625 -4.429688 15.863281 -4.40625 15.625 -4.40625 C 15.28125 -4.394531 15.054688 -4.347656 14.953125 -4.265625 C 14.867188 -4.179688 14.769531 -4.160156 14.65625 -4.203125 C 14.539062 -4.242188 14.425781 -4.328125 14.3125 -4.453125 C 14.226562 -4.535156 14.175781 -4.628906 14.15625 -4.734375 C 14.144531 -4.847656 14.1875 -4.945312 14.28125 -5.03125 C 14.457031 -5.195312 14.691406 -5.28125 14.984375 -5.28125 C 15.210938 -5.289062 15.394531 -5.304688 15.53125 -5.328125 C 15.675781 -5.359375 15.789062 -5.414062 15.875 -5.5 C 15.96875 -5.582031 16.007812 -5.703125 16 -5.859375 C 15.988281 -6.015625 15.921875 -6.15625 15.796875 -6.28125 C 15.648438 -6.445312 15.398438 -6.570312 15.046875 -6.65625 C 14.921875 -6.664062 14.820312 -6.707031 14.75 -6.78125 C 14.664062 -6.882812 14.628906 -7.023438 14.640625 -7.203125 C 14.648438 -7.328125 14.695312 -7.425781 14.78125 -7.5 C 14.894531 -7.601562 15.0625 -7.648438 15.28125 -7.640625 Z M 15.28125 -7.640625 "/></g></g></g><g fill="#72685f" fill-opacity="1"><g transform="translate(92.647389, 327.516399)"><g/></g></g><g fill="#72685f" fill-opacity="1"><g transform="translate(102.128564, 335.236486)"><g><path d="M 4.265625 3.078125 C 3.554688 2.597656 2.988281 2.070312 2.5625 1.5 C 2.144531 0.925781 1.835938 0.238281 1.640625 -0.5625 C 1.554688 -0.875 1.585938 -1.144531 1.734375 -1.375 C 1.859375 -1.550781 2.039062 -1.664062 2.28125 -1.71875 C 2.519531 -1.769531 2.726562 -1.734375 2.90625 -1.609375 C 3.082031 -1.492188 3.1875 -1.335938 3.21875 -1.140625 C 3.375 -0.515625 3.601562 0.0234375 3.90625 0.484375 C 4.207031 0.941406 4.628906 1.347656 5.171875 1.703125 C 5.796875 2.117188 6.414062 2.328125 7.03125 2.328125 C 7.644531 2.335938 8.097656 2.128906 8.390625 1.703125 C 8.742188 1.179688 8.800781 0.632812 8.5625 0.0625 C 8.320312 -0.5 7.835938 -1.160156 7.109375 -1.921875 C 6.234375 -2.816406 5.679688 -3.6875 5.453125 -4.53125 C 5.222656 -5.375 5.394531 -6.21875 5.96875 -7.0625 C 6.351562 -7.644531 6.847656 -8.050781 7.453125 -8.28125 C 8.054688 -8.519531 8.707031 -8.570312 9.40625 -8.4375 C 10.113281 -8.300781 10.8125 -8.003906 11.5 -7.546875 C 12.113281 -7.128906 12.625 -6.640625 13.03125 -6.078125 C 13.4375 -5.515625 13.695312 -4.96875 13.8125 -4.4375 C 13.90625 -4.082031 13.878906 -3.789062 13.734375 -3.5625 C 13.609375 -3.382812 13.429688 -3.269531 13.203125 -3.21875 C 12.984375 -3.164062 12.773438 -3.203125 12.578125 -3.328125 C 12.441406 -3.421875 12.359375 -3.535156 12.328125 -3.671875 C 12.242188 -4.109375 12.035156 -4.566406 11.703125 -5.046875 C 11.367188 -5.523438 10.992188 -5.90625 10.578125 -6.1875 C 9.910156 -6.632812 9.289062 -6.851562 8.71875 -6.84375 C 8.144531 -6.832031 7.707031 -6.609375 7.40625 -6.171875 C 7.082031 -5.679688 7.023438 -5.175781 7.234375 -4.65625 C 7.453125 -4.144531 7.890625 -3.535156 8.546875 -2.828125 C 9.210938 -2.140625 9.710938 -1.515625 10.046875 -0.953125 C 10.378906 -0.398438 10.546875 0.164062 10.546875 0.75 C 10.546875 1.332031 10.320312 1.953125 9.875 2.609375 C 9.488281 3.171875 8.984375 3.566406 8.359375 3.796875 C 7.742188 4.023438 7.070312 4.070312 6.34375 3.9375 C 5.625 3.8125 4.929688 3.523438 4.265625 3.078125 Z M 4.265625 3.078125 "/></g></g></g><g fill="#72685f" fill-opacity="1"><g transform="translate(117.175818, 344.803383)"><g><path d="M 10.4375 3.890625 C 10.4375 4.003906 10.410156 4.117188 10.359375 4.234375 C 10.242188 4.453125 10.082031 4.59375 9.875 4.65625 C 9.664062 4.71875 9.460938 4.703125 9.265625 4.609375 C 9.117188 4.535156 9.003906 4.421875 8.921875 4.265625 C 8.847656 4.117188 8.8125 3.945312 8.8125 3.75 L 8.984375 0.90625 L 4.03125 -1.515625 L 1.875 0.359375 C 1.75 0.492188 1.601562 0.570312 1.4375 0.59375 C 1.269531 0.625 1.113281 0.601562 0.96875 0.53125 C 0.738281 0.414062 0.59375 0.269531 0.53125 0.09375 C 0.476562 -0.0820312 0.5 -0.269531 0.59375 -0.46875 C 0.613281 -0.507812 0.664062 -0.59375 0.75 -0.71875 L 9.71875 -8.609375 C 9.875 -8.742188 10.039062 -8.820312 10.21875 -8.84375 C 10.394531 -8.875 10.5625 -8.835938 10.71875 -8.734375 C 10.875 -8.648438 10.992188 -8.535156 11.078125 -8.390625 C 11.171875 -8.253906 11.207031 -8.085938 11.1875 -7.890625 Z M 5.328125 -2.6875 L 9.078125 -0.859375 L 9.421875 -6.28125 Z M 11.046875 -9.34375 C 10.890625 -9.414062 10.78125 -9.515625 10.71875 -9.640625 C 10.664062 -9.765625 10.675781 -9.898438 10.75 -10.046875 C 10.8125 -10.179688 10.929688 -10.269531 11.109375 -10.3125 L 13.125 -10.8125 C 13.4375 -10.882812 13.691406 -10.867188 13.890625 -10.765625 C 14.066406 -10.671875 14.195312 -10.523438 14.28125 -10.328125 C 14.363281 -10.128906 14.363281 -9.941406 14.28125 -9.765625 C 14.207031 -9.628906 14.097656 -9.515625 13.953125 -9.421875 C 13.804688 -9.335938 13.640625 -9.296875 13.453125 -9.296875 L 11.453125 -9.25 C 11.304688 -9.25 11.171875 -9.28125 11.046875 -9.34375 Z M 11.046875 -9.34375 "/></g></g></g><g fill="#72685f" fill-opacity="1"><g transform="translate(134.390605, 352.669725)"><g><path d="M 13.546875 -7.96875 C 13.773438 -7.726562 13.835938 -7.457031 13.734375 -7.15625 C 13.671875 -6.957031 13.539062 -6.789062 13.34375 -6.65625 C 13.15625 -6.519531 12.941406 -6.488281 12.703125 -6.5625 C 12.546875 -6.613281 12.40625 -6.703125 12.28125 -6.828125 C 11.707031 -7.453125 11.015625 -7.898438 10.203125 -8.171875 C 9.359375 -8.441406 8.546875 -8.5 7.765625 -8.34375 C 6.984375 -8.1875 6.300781 -7.828125 5.71875 -7.265625 C 5.144531 -6.710938 4.710938 -6 4.421875 -5.125 C 4.117188 -4.1875 4.039062 -3.316406 4.1875 -2.515625 C 4.34375 -1.710938 4.6875 -1.023438 5.21875 -0.453125 C 5.757812 0.117188 6.441406 0.535156 7.265625 0.796875 C 8.097656 1.066406 8.925781 1.113281 9.75 0.9375 C 9.90625 0.90625 10.0625 0.914062 10.21875 0.96875 C 10.46875 1.050781 10.632812 1.210938 10.71875 1.453125 C 10.800781 1.660156 10.804688 1.863281 10.734375 2.0625 C 10.691406 2.207031 10.613281 2.320312 10.5 2.40625 C 10.394531 2.5 10.265625 2.5625 10.109375 2.59375 C 9.585938 2.695312 9.03125 2.726562 8.4375 2.6875 C 7.84375 2.65625 7.28125 2.550781 6.75 2.375 C 5.65625 2.019531 4.722656 1.445312 3.953125 0.65625 C 3.179688 -0.125 2.671875 -1.066406 2.421875 -2.171875 C 2.179688 -3.285156 2.265625 -4.460938 2.671875 -5.703125 C 3.046875 -6.847656 3.644531 -7.796875 4.46875 -8.546875 C 5.300781 -9.296875 6.265625 -9.785156 7.359375 -10.015625 C 8.453125 -10.242188 9.570312 -10.171875 10.71875 -9.796875 C 11.820312 -9.429688 12.765625 -8.820312 13.546875 -7.96875 Z M 13.546875 -7.96875 "/></g></g></g><g fill="#72685f" fill-opacity="1"><g transform="translate(152.493552, 358.07129)"><g><path d="M 12.46875 -10.546875 C 12.726562 -10.503906 12.925781 -10.390625 13.0625 -10.203125 C 13.195312 -10.015625 13.238281 -9.796875 13.1875 -9.546875 L 11.359375 1.078125 C 11.304688 1.304688 11.1875 1.488281 11 1.625 C 10.8125 1.769531 10.582031 1.820312 10.3125 1.78125 C 10.09375 1.738281 9.90625 1.617188 9.75 1.421875 C 9.601562 1.222656 9.550781 1.003906 9.59375 0.765625 L 10.390625 -3.796875 L 4.140625 -4.875 L 3.34375 -0.3125 C 3.300781 -0.0703125 3.175781 0.113281 2.96875 0.25 C 2.769531 0.382812 2.554688 0.4375 2.328125 0.40625 C 2.066406 0.351562 1.867188 0.226562 1.734375 0.03125 C 1.609375 -0.15625 1.566406 -0.367188 1.609375 -0.609375 L 3.4375 -11.234375 C 3.476562 -11.472656 3.59375 -11.65625 3.78125 -11.78125 C 3.976562 -11.914062 4.207031 -11.960938 4.46875 -11.921875 C 4.695312 -11.878906 4.878906 -11.765625 5.015625 -11.578125 C 5.160156 -11.390625 5.210938 -11.175781 5.171875 -10.9375 L 4.421875 -6.5 L 10.671875 -5.421875 L 11.421875 -9.859375 C 11.460938 -10.097656 11.585938 -10.28125 11.796875 -10.40625 C 12.015625 -10.539062 12.238281 -10.585938 12.46875 -10.546875 Z M 12.46875 -10.546875 "/></g></g></g><g fill="#72685f" fill-opacity="1"><g transform="translate(172.478628, 360.819861)"><g/></g></g><g fill="#72685f" fill-opacity="1"><g transform="translate(184.731042, 361.200749)"><g><path d="M 8.1875 -7.390625 C 8.863281 -7.203125 9.425781 -6.863281 9.875 -6.375 C 10.320312 -5.882812 10.570312 -5.222656 10.625 -4.390625 C 10.71875 -3.078125 10.398438 -2.109375 9.671875 -1.484375 C 8.941406 -0.867188 8.023438 -0.523438 6.921875 -0.453125 L 2.34375 -0.15625 C 2.101562 -0.132812 1.894531 -0.203125 1.71875 -0.359375 C 1.539062 -0.515625 1.441406 -0.710938 1.421875 -0.953125 L 0.71875 -11.71875 C 0.695312 -11.957031 0.765625 -12.164062 0.921875 -12.34375 C 1.078125 -12.519531 1.273438 -12.617188 1.515625 -12.640625 L 6.09375 -12.9375 C 7.175781 -13.007812 8.019531 -12.796875 8.625 -12.296875 C 9.226562 -11.804688 9.5625 -11.0625 9.625 -10.0625 C 9.664062 -9.488281 9.5625 -8.96875 9.3125 -8.5 C 9.070312 -8.03125 8.695312 -7.660156 8.1875 -7.390625 Z M 7.796875 -9.65625 C 7.765625 -10.21875 7.582031 -10.628906 7.25 -10.890625 C 6.925781 -11.160156 6.492188 -11.273438 5.953125 -11.234375 L 2.59375 -11.015625 L 2.828125 -7.546875 L 6.21875 -7.765625 C 6.707031 -7.816406 7.101562 -8.003906 7.40625 -8.328125 C 7.707031 -8.660156 7.835938 -9.101562 7.796875 -9.65625 Z M 6.796875 -2.09375 C 7.453125 -2.144531 7.960938 -2.347656 8.328125 -2.703125 C 8.703125 -3.066406 8.863281 -3.585938 8.8125 -4.265625 C 8.726562 -5.585938 7.9375 -6.203125 6.4375 -6.109375 L 2.9375 -5.875 L 3.203125 -1.859375 Z M 6.796875 -2.09375 "/></g></g></g><g fill="#72685f" fill-opacity="1"><g transform="translate(203.600081, 359.328416)"><g><path d="M 3.046875 -1.453125 C 3.085938 -1.203125 3.035156 -0.976562 2.890625 -0.78125 C 2.742188 -0.582031 2.554688 -0.460938 2.328125 -0.421875 C 2.066406 -0.378906 1.835938 -0.421875 1.640625 -0.546875 C 1.453125 -0.679688 1.335938 -0.875 1.296875 -1.125 L -0.65625 -11.734375 C -0.695312 -11.960938 -0.648438 -12.175781 -0.515625 -12.375 C -0.378906 -12.570312 -0.179688 -12.691406 0.078125 -12.734375 C 0.304688 -12.785156 0.519531 -12.742188 0.71875 -12.609375 C 0.925781 -12.472656 1.050781 -12.289062 1.09375 -12.0625 Z M -0.046875 -13.484375 C -0.148438 -13.472656 -0.296875 -13.492188 -0.484375 -13.546875 L -2.390625 -14.125 C -2.578125 -14.1875 -2.726562 -14.273438 -2.84375 -14.390625 C -2.96875 -14.503906 -3.039062 -14.640625 -3.0625 -14.796875 C -3.101562 -14.992188 -3.054688 -15.175781 -2.921875 -15.34375 C -2.785156 -15.519531 -2.617188 -15.625 -2.421875 -15.65625 C -2.203125 -15.695312 -1.941406 -15.640625 -1.640625 -15.484375 L 0.125 -14.484375 C 0.289062 -14.378906 0.390625 -14.253906 0.421875 -14.109375 C 0.441406 -13.960938 0.410156 -13.828125 0.328125 -13.703125 C 0.242188 -13.585938 0.117188 -13.515625 -0.046875 -13.484375 Z M -0.046875 -13.484375 "/></g></g></g><g fill="#72685f" fill-opacity="1"><g transform="translate(215.441206, 356.962091)"><g><path d="M 6.625 -15.171875 C 6.84375 -15.242188 7.035156 -15.226562 7.203125 -15.125 C 7.378906 -15.019531 7.503906 -14.859375 7.578125 -14.640625 L 10.796875 -4.28125 C 10.867188 -4.050781 10.859375 -3.832031 10.765625 -3.625 C 10.671875 -3.414062 10.503906 -3.273438 10.265625 -3.203125 C 10.128906 -3.160156 10 -3.140625 9.875 -3.140625 C 9.75 -3.148438 9.632812 -3.179688 9.53125 -3.234375 L 0.09375 -9.890625 L 2.65625 -1.65625 C 2.71875 -1.445312 2.703125 -1.242188 2.609375 -1.046875 C 2.515625 -0.859375 2.359375 -0.734375 2.140625 -0.671875 C 1.921875 -0.597656 1.722656 -0.613281 1.546875 -0.71875 C 1.367188 -0.820312 1.25 -0.976562 1.1875 -1.1875 L -2.046875 -11.5625 C -2.117188 -11.800781 -2.101562 -12.019531 -2 -12.21875 C -1.894531 -12.425781 -1.726562 -12.566406 -1.5 -12.640625 C -1.363281 -12.679688 -1.222656 -12.695312 -1.078125 -12.6875 C -0.941406 -12.675781 -0.828125 -12.632812 -0.734375 -12.5625 L 8.6875 -5.875 L 6.109375 -14.171875 C 6.035156 -14.390625 6.050781 -14.59375 6.15625 -14.78125 C 6.257812 -14.976562 6.414062 -15.109375 6.625 -15.171875 Z M 6.625 -15.171875 "/></g></g></g><g fill="#72685f" fill-opacity="1"><g transform="translate(234.937495, 350.278487)"><g><path d="M 3.9375 -15.859375 C 4.164062 -15.972656 4.390625 -15.992188 4.609375 -15.921875 C 4.835938 -15.847656 5.007812 -15.695312 5.125 -15.46875 L 9.84375 -5.78125 C 9.945312 -5.550781 9.957031 -5.320312 9.875 -5.09375 C 9.800781 -4.875 9.644531 -4.707031 9.40625 -4.59375 C 9.195312 -4.488281 8.976562 -4.472656 8.75 -4.546875 C 8.519531 -4.617188 8.347656 -4.765625 8.234375 -4.984375 L 6.21875 -9.140625 L 0.515625 -6.359375 L 2.53125 -2.203125 C 2.644531 -1.984375 2.65625 -1.757812 2.5625 -1.53125 C 2.476562 -1.300781 2.332031 -1.132812 2.125 -1.03125 C 1.882812 -0.914062 1.65625 -0.898438 1.4375 -0.984375 C 1.21875 -1.066406 1.050781 -1.21875 0.9375 -1.4375 L -3.78125 -11.125 C -3.882812 -11.34375 -3.898438 -11.5625 -3.828125 -11.78125 C -3.753906 -12.007812 -3.597656 -12.179688 -3.359375 -12.296875 C -3.148438 -12.398438 -2.925781 -12.410156 -2.6875 -12.328125 C -2.457031 -12.253906 -2.289062 -12.109375 -2.1875 -11.890625 L -0.21875 -7.859375 L 5.484375 -10.640625 L 3.515625 -14.671875 C 3.410156 -14.890625 3.398438 -15.113281 3.484375 -15.34375 C 3.566406 -15.582031 3.71875 -15.753906 3.9375 -15.859375 Z M 3.9375 -15.859375 "/></g></g></g><g fill="#72685f" fill-opacity="1"><g transform="translate(252.755363, 340.818235)"><g/></g></g><g fill="#72685f" fill-opacity="1"><g transform="translate(262.875296, 333.957957)"><g><path d="M 0.390625 -15.453125 C 0.492188 -15.304688 0.5625 -15.128906 0.59375 -14.921875 L 1.0625 -8.296875 L 4.15625 -4.515625 C 4.3125 -4.328125 4.378906 -4.117188 4.359375 -3.890625 C 4.335938 -3.660156 4.238281 -3.472656 4.0625 -3.328125 C 3.875 -3.171875 3.660156 -3.101562 3.421875 -3.125 C 3.191406 -3.15625 3 -3.265625 2.84375 -3.453125 L -0.34375 -7.359375 L -6.546875 -8.921875 C -6.828125 -8.984375 -7.03125 -9.097656 -7.15625 -9.265625 C -7.3125 -9.441406 -7.367188 -9.65625 -7.328125 -9.90625 C -7.285156 -10.15625 -7.175781 -10.351562 -7 -10.5 C -6.789062 -10.675781 -6.523438 -10.726562 -6.203125 -10.65625 L -0.671875 -9.1875 L -1.09375 -14.8125 C -1.125 -15.132812 -1.03125 -15.382812 -0.8125 -15.5625 C -0.632812 -15.707031 -0.425781 -15.769531 -0.1875 -15.75 C 0.0390625 -15.726562 0.234375 -15.628906 0.390625 -15.453125 Z M 0.390625 -15.453125 "/></g></g></g><g fill="#72685f" fill-opacity="1"><g transform="translate(276.318035, 322.320914)"><g><path d="M 4.65625 -7.375 C 4.820312 -7.550781 5.023438 -7.640625 5.265625 -7.640625 C 5.503906 -7.648438 5.707031 -7.578125 5.875 -7.421875 C 6.039062 -7.265625 6.117188 -7.070312 6.109375 -6.84375 C 6.109375 -6.625 6.023438 -6.425781 5.859375 -6.25 L 1.609375 -1.703125 C 1.441406 -1.535156 1.238281 -1.445312 1 -1.4375 C 0.769531 -1.425781 0.566406 -1.503906 0.390625 -1.671875 L -7.484375 -9.046875 C -7.660156 -9.210938 -7.75 -9.414062 -7.75 -9.65625 C -7.757812 -9.894531 -7.679688 -10.097656 -7.515625 -10.265625 L -3.265625 -14.8125 C -3.097656 -14.988281 -2.898438 -15.082031 -2.671875 -15.09375 C -2.441406 -15.101562 -2.238281 -15.023438 -2.0625 -14.859375 C -1.882812 -14.691406 -1.800781 -14.5 -1.8125 -14.28125 C -1.820312 -14.0625 -1.910156 -13.863281 -2.078125 -13.6875 L -5.71875 -9.8125 L -3.046875 -7.3125 L 0.03125 -10.59375 C 0.207031 -10.78125 0.40625 -10.878906 0.625 -10.890625 C 0.851562 -10.898438 1.050781 -10.828125 1.21875 -10.671875 C 1.394531 -10.492188 1.484375 -10.296875 1.484375 -10.078125 C 1.484375 -9.867188 1.394531 -9.671875 1.21875 -9.484375 L -1.859375 -6.203125 L 1.015625 -3.5 Z M -5.015625 -15.390625 C -4.796875 -15.390625 -4.640625 -15.34375 -4.546875 -15.25 C -4.472656 -15.1875 -4.4375 -15.097656 -4.4375 -14.984375 C -4.445312 -14.867188 -4.492188 -14.765625 -4.578125 -14.671875 C -4.628906 -14.609375 -4.722656 -14.550781 -4.859375 -14.5 C -5.003906 -14.457031 -5.160156 -14.410156 -5.328125 -14.359375 L -6.828125 -13.984375 L -7.078125 -12.5 C -7.097656 -12.332031 -7.128906 -12.179688 -7.171875 -12.046875 C -7.210938 -11.910156 -7.265625 -11.8125 -7.328125 -11.75 C -7.410156 -11.65625 -7.507812 -11.597656 -7.625 -11.578125 C -7.75 -11.566406 -7.847656 -11.59375 -7.921875 -11.65625 C -7.972656 -11.707031 -8.007812 -11.769531 -8.03125 -11.84375 C -8.050781 -11.925781 -8.066406 -12.019531 -8.078125 -12.125 L -8.234375 -13.953125 C -8.265625 -14.148438 -8.253906 -14.316406 -8.203125 -14.453125 C -8.160156 -14.585938 -8.070312 -14.726562 -7.9375 -14.875 L -7.765625 -15.0625 C -7.628906 -15.195312 -7.492188 -15.289062 -7.359375 -15.34375 C -7.222656 -15.394531 -7.054688 -15.421875 -6.859375 -15.421875 Z M -5.015625 -15.390625 "/></g></g></g><g fill="#72685f" fill-opacity="1"><g transform="translate(288.082684, 309.158261)"><g><path d="M -4.03125 -16.046875 C -3.894531 -16.234375 -3.722656 -16.335938 -3.515625 -16.359375 C -3.316406 -16.390625 -3.125 -16.34375 -2.9375 -16.21875 L 5.9375 -9.984375 C 6.144531 -9.835938 6.269531 -9.65625 6.3125 -9.4375 C 6.363281 -9.21875 6.316406 -9.003906 6.171875 -8.796875 C 6.097656 -8.691406 6.003906 -8.597656 5.890625 -8.515625 C 5.785156 -8.441406 5.679688 -8.394531 5.578125 -8.375 L -5.96875 -7.890625 L 1.09375 -2.9375 C 1.269531 -2.8125 1.378906 -2.644531 1.421875 -2.4375 C 1.460938 -2.226562 1.421875 -2.03125 1.296875 -1.84375 C 1.160156 -1.65625 0.988281 -1.546875 0.78125 -1.515625 C 0.582031 -1.492188 0.394531 -1.546875 0.21875 -1.671875 L -8.6875 -7.90625 C -8.882812 -8.050781 -9.003906 -8.234375 -9.046875 -8.453125 C -9.097656 -8.679688 -9.050781 -8.894531 -8.90625 -9.09375 C -8.832031 -9.207031 -8.734375 -9.300781 -8.609375 -9.375 C -8.492188 -9.457031 -8.375 -9.492188 -8.25 -9.484375 L 3.28125 -9.953125 L -3.828125 -14.953125 C -4.015625 -15.078125 -4.125 -15.242188 -4.15625 -15.453125 C -4.195312 -15.671875 -4.15625 -15.867188 -4.03125 -16.046875 Z M -4.03125 -16.046875 "/></g></g></g><path stroke-linecap="round" transform="matrix(0, 0.75, -0.75, 0, 66.284926, 130.502276)" fill="none" stroke-linejoin="miter" d="M 4.002174 3.999693 L 138.648016 3.999693 " stroke="#72685f" stroke-width="8" stroke-opacity="1" stroke-miterlimit="4"/><path stroke-linecap="round" transform="matrix(0, 0.75, -0.75, 0, 313.276244, 130.502276)" fill="none" stroke-linejoin="miter" d="M 4.002174 3.998534 L 138.648016 3.998534 " stroke="#72685f" stroke-width="8" stroke-opacity="1" stroke-miterlimit="4"/></svg>