<?xml version="1.0" encoding="UTF-8"?>
<svg width="512px" height="512px" viewBox="0 0 512 512" version="1.1" xmlns="http://www.w3.org/2000/svg" xmlns:xlink="http://www.w3.org/1999/xlink">
    <title>Group 4</title>
    <defs>
        <polygon id="path-1" points="0 0 115 0 115 23.1404959 0 23.1404959"></polygon>
        <path d="M11.4993314,0 L103.500669,0 C109.84905,0 115,5.18271656 115,11.5702471 C115,17.9645097 109.84905,23.1404959 103.500669,23.1404959 L11.4993314,23.1404959 C5.15095192,23.1404959 0,17.9645097 0,11.5702471 C0,5.18271656 5.15095192,0 11.4993314,0" id="path-3"></path>
        <polygon id="path-5" points="0 0 79.1666667 0 79.1666667 23.1404959 0 23.1404959"></polygon>
        <path d="M67.6941069,23.1404959 L11.4725597,23.1404959 C5.13895994,23.1404959 0,17.9592849 0,11.5668837 C0,5.18121095 5.13895994,0 11.4725597,0 L67.6941069,0 C74.0277067,0 79.1666667,5.18121095 79.1666667,11.5668837 C79.1666667,17.9592849 74.0277067,23.1404959 67.6941069,23.1404959" id="path-7"></path>
        <polygon id="path-9" points="0 0 45.8333333 0 45.8333333 23.1404959 0 23.1404959"></polygon>
        <path d="M34.3749996,23.1404959 L11.4583321,23.1404959 C5.12592065,23.1404959 0,17.9577793 0,11.5702488 C0,5.17598618 5.12592065,0 11.4583321,0 L34.3749996,0 C40.7007457,0 45.8333333,5.17598618 45.8333333,11.5702488 C45.8333333,17.9577793 40.7007457,23.1404959 34.3749996,23.1404959" id="path-11"></path>
    </defs>
    <g id="Page-1" stroke="none" stroke-width="1" fill="none" fill-rule="evenodd">
        <g id="Group-4">
            <g id="TUNA-(1)" transform="translate(39, 158)">
                <g id="Group-2" transform="translate(0, 1)">
                    <g id="Clipped">
                        <mask id="mask-2" fill="white">
                            <use xlink:href="#path-1"></use>
                        </mask>
                        <g id="Path"></g>
                        <g mask="url(#mask-2)">
                            <mask id="mask-4" fill="white">
                                <use xlink:href="#path-3"></use>
                            </mask>
                            <g id="Path"></g>
                            <g id="Group" mask="url(#mask-4)" fill="#D90429" fill-rule="nonzero">
                                <polygon id="Path" points="0 0 115 0 115 23.1404959 0 23.1404959"></polygon>
                                <polygon id="Path" points="0 0 115 0 115 23.1404959 0 23.1404959"></polygon>
                            </g>
                        </g>
                    </g>
                    <g id="Clipped" transform="translate(35.8333, 38.843)">
                        <mask id="mask-6" fill="white">
                            <use xlink:href="#path-5"></use>
                        </mask>
                        <g id="Path"></g>
                        <g mask="url(#mask-6)">
                            <mask id="mask-8" fill="white">
                                <use xlink:href="#path-7"></use>
                            </mask>
                            <g id="Path"></g>
                            <polygon id="Path" fill="#D90429" fill-rule="nonzero" mask="url(#mask-8)" points="79.1666667 23.1404959 -35.5656008 23.1404959 -35.5656008 0 79.1666667 0"></polygon>
                        </g>
                    </g>
                    <g id="Clipped" transform="translate(69.1667, 76.8595)">
                        <mask id="mask-10" fill="white">
                            <use xlink:href="#path-9"></use>
                        </mask>
                        <g id="Path"></g>
                        <g mask="url(#mask-10)">
                            <mask id="mask-12" fill="white">
                                <use xlink:href="#path-11"></use>
                            </mask>
                            <g id="Path"></g>
                            <polygon id="Path" fill="#D90429" fill-rule="nonzero" mask="url(#mask-12)" points="45.8333333 23.1404959 -68.7566661 23.1404959 -68.7566661 0 45.8333333 0"></polygon>
                        </g>
                    </g>
                </g>
                <g id="Group" transform="translate(130, 0)" fill="#D90429" fill-rule="nonzero">
                    <g id="Path">
                        <path d="M42.0669003,102 C28.2720603,102 17.8088572,98.453158 10.6772858,91.3528184 C3.55909525,84.2591345 0,73.9047486 0,60.289666 L0,9.07672234 C0,6.32841901 0.802803441,4.12578288 2.40841032,2.47546973 C4.0273964,0.825156576 6.22172581,0 8.99139853,0 C11.7343094,0 13.9152596,0.825156576 15.5208665,2.47546973 C17.1398526,4.12578288 17.956037,6.32841901 17.956037,9.07672234 L17.956037,61.2745303 C17.956037,69.8854393 19.9964953,76.3868741 24.0841032,80.7854906 C28.1850904,85.1907612 34.1793561,87.3867432 42.0669003,87.3867432 C49.8607833,87.3867432 55.8015287,85.170799 59.8891367,80.7322547 C63.9901238,76.2804023 66.043963,69.7922756 66.043963,61.2745303 L66.043963,9.07672234 C66.043963,6.32841901 66.8467665,4.12578288 68.4523734,2.47546973 C70.0713594,0.825156576 72.2589993,0 75.0086015,0 C77.7715829,0 79.9592227,0.825156576 81.5648296,2.47546973 C83.1838156,4.12578288 84,6.32841901 84,9.07672234 L84,60.289666 C84,73.8115866 80.4275255,84.1526626 73.2959541,91.2995825 C66.1777636,98.4331942 55.768079,102 42.0669003,102 Z"></path>
                    </g>
                </g>
                <g id="Group" transform="translate(236, 0)" fill="#D90429" fill-rule="nonzero">
                    <g id="Path">
                        <path d="M75.3907285,0 C78.0397351,0 80.1324503,0.820492662 81.6688742,2.46147799 C83.2185422,4.10246331 84,6.29264979 84,9.02541929 L84,91.8422432 C84,94.5617798 83.1920538,96.7651992 81.589404,98.4591195 C80,100.15304 77.9337748,101 75.3907285,101 C72.3841068,101 70.0794694,99.9148323 68.4768212,97.7444969 L16.9536424,30.7552411 L16.9536424,91.8422432 C16.9536424,94.5617798 16.1920526,96.7651992 14.6754967,98.4591195 C13.172185,100.15304 11.1059598,101 8.47682119,101 C5.84106045,101 3.7682115,100.15304 2.25165563,98.4591195 C0.748343947,96.7651992 0,94.5617798 0,91.8422432 L0,9.02541929 C0,6.29264979 0.794701987,4.10246331 2.38410596,2.46147799 C3.98675581,0.820492662 6.1192053,0 8.76821192,0 C11.6821192,0 13.9337748,1.07855126 15.5231788,3.22903564 L66.9403974,69.9536164 L66.9403974,9.02541929 C66.9403974,6.29264979 67.7086093,4.10246331 69.2450331,2.46147799 C70.7947028,0.820492662 72.8476821,0 75.3907285,0 Z"></path>
                    </g>
                </g>
                <g id="Group" transform="translate(334, 0)" fill="#D90429" fill-rule="nonzero">
                    <g id="Shape">
                        <path d="M99.1411702,89.5775387 C99.7114864,90.7966413 100,92.0157439 100,93.2348465 C100,95.4080294 99.1143317,97.2499352 97.3429952,98.7473104 C95.585077,100.251312 93.5654853,101 91.2775094,101 C89.7544279,101 88.3252818,100.602467 86.9833602,99.8073996 C85.6414385,99.0123327 84.5947397,97.7667279 83.8432636,96.0705851 L75.2549651,77.1479927 L24.9060655,77.1479927 L16.317767,96.0705851 C15.5461617,97.7667279 14.4927536,99.0123327 13.150832,99.8073996 C11.8223304,100.602467 10.3462149,101 8.72249061,101 C6.53515749,101 4.53569512,100.251312 2.7106817,98.7473104 C0.899086634,97.2499352 0,95.4080294 0,93.2348465 C0,92.0157439 0.281804402,90.7966413 0.858829844,89.5775387 L40.3381643,5.80398845 C41.1969941,3.91570496 42.5120773,2.47795939 44.2834138,1.4841249 C46.0547504,0.496917244 47.9334407,0 49.9194847,0 C51.9189488,0 53.8110574,0.496917244 55.582394,1.4841249 C57.3537305,2.47795939 58.6688137,3.91570496 59.5276436,5.80398845 L99.1411702,89.5775387 Z M31.1862587,63.0223039 L68.9479334,63.0223039 L50.0805153,21.0692732 L31.1862587,63.0223039 Z"></path>
                    </g>
                </g>
            </g>
            <text id="tủ-sách-đáng-quý" font-family="Nunito-ExtraBold, Nunito" font-size="55" font-weight="700" fill="#D90429">
                <tspan x="34" y="335">tủ sách đáng quý</tspan>
            </text>
        </g>
    </g>
</svg>